<?xml version="1.0" encoding="utf-8"?>
<!-- Generator: Adobe Illustrator 23.0.3, SVG Export Plug-In . SVG Version: 6.00 Build 0)  -->
<svg version="1.1" id="Layer_1" xmlns="http://www.w3.org/2000/svg" xmlns:xlink="http://www.w3.org/1999/xlink" x="0px" y="0px"
	 viewBox="0 0 512 512" style="enable-background:new 0 0 512 512;" xml:space="preserve">
<style type="text/css">
	.st0{fill:#073344;stroke:#FFA500;stroke-width:15;stroke-miterlimit:10;}
	.st1{enable-background:new    ;}
	.st2{fill:#825400;}
	.st3{fill:#B47500;}
	.st4{fill:#DF9000;}
	.st5{clip-path:url(#SVGID_2_);enable-background:new    ;}
	.st6{fill:#996300;}
	.st7{fill:#946000;}
	.st8{fill:#8F5C00;}
	.st9{fill:#8A5900;}
	.st10{fill:#855600;}
	.st11{clip-path:url(#SVGID_4_);enable-background:new    ;}
	.st12{clip-path:url(#SVGID_6_);enable-background:new    ;}
	.st13{fill:#A86D00;}
	.st14{fill:#A36A00;}
	.st15{fill:#9E6600;}
	.st16{clip-path:url(#SVGID_8_);enable-background:new    ;}
	.st17{clip-path:url(#SVGID_10_);enable-background:new    ;}
	.st18{clip-path:url(#SVGID_12_);enable-background:new    ;}
	.st19{clip-path:url(#SVGID_14_);enable-background:new    ;}
	.st20{clip-path:url(#SVGID_16_);enable-background:new    ;}
	.st21{clip-path:url(#SVGID_18_);enable-background:new    ;}
	.st22{clip-path:url(#SVGID_20_);enable-background:new    ;}
	.st23{clip-path:url(#SVGID_22_);enable-background:new    ;}
	.st24{clip-path:url(#SVGID_24_);enable-background:new    ;}
	.st25{clip-path:url(#SVGID_26_);enable-background:new    ;}
	.st26{clip-path:url(#SVGID_28_);enable-background:new    ;}
	.st27{clip-path:url(#SVGID_30_);enable-background:new    ;}
	.st28{clip-path:url(#SVGID_32_);enable-background:new    ;}
	.st29{clip-path:url(#SVGID_34_);enable-background:new    ;}
	.st30{clip-path:url(#SVGID_36_);enable-background:new    ;}
	.st31{fill:#905D00;}
	.st32{clip-path:url(#SVGID_38_);enable-background:new    ;}
	.st33{clip-path:url(#SVGID_40_);enable-background:new    ;}
	.st34{clip-path:url(#SVGID_42_);enable-background:new    ;}
	.st35{clip-path:url(#SVGID_44_);enable-background:new    ;}
	.st36{clip-path:url(#SVGID_46_);enable-background:new    ;}
	.st37{clip-path:url(#SVGID_48_);enable-background:new    ;}
	.st38{clip-path:url(#SVGID_50_);enable-background:new    ;}
	.st39{clip-path:url(#SVGID_52_);enable-background:new    ;}
	.st40{clip-path:url(#SVGID_54_);enable-background:new    ;}
	.st41{clip-path:url(#SVGID_56_);enable-background:new    ;}
	.st42{clip-path:url(#SVGID_58_);enable-background:new    ;}
	.st43{clip-path:url(#SVGID_60_);enable-background:new    ;}
	.st44{clip-path:url(#SVGID_62_);enable-background:new    ;}
	.st45{clip-path:url(#SVGID_64_);enable-background:new    ;}
	.st46{clip-path:url(#SVGID_66_);enable-background:new    ;}
	.st47{clip-path:url(#SVGID_68_);enable-background:new    ;}
	.st48{clip-path:url(#SVGID_70_);enable-background:new    ;}
	.st49{clip-path:url(#SVGID_72_);enable-background:new    ;}
	.st50{clip-path:url(#SVGID_74_);enable-background:new    ;}
	.st51{clip-path:url(#SVGID_76_);enable-background:new    ;}
	.st52{clip-path:url(#SVGID_78_);enable-background:new    ;}
	.st53{clip-path:url(#SVGID_80_);enable-background:new    ;}
	.st54{clip-path:url(#SVGID_82_);enable-background:new    ;}
	.st55{clip-path:url(#SVGID_84_);enable-background:new    ;}
	.st56{clip-path:url(#SVGID_86_);enable-background:new    ;}
	.st57{clip-path:url(#SVGID_88_);enable-background:new    ;}
	.st58{clip-path:url(#SVGID_90_);enable-background:new    ;}
	.st59{clip-path:url(#SVGID_92_);enable-background:new    ;}
	.st60{clip-path:url(#SVGID_94_);enable-background:new    ;}
	.st61{clip-path:url(#SVGID_96_);enable-background:new    ;}
	.st62{clip-path:url(#SVGID_98_);enable-background:new    ;}
	.st63{clip-path:url(#SVGID_100_);enable-background:new    ;}
	.st64{clip-path:url(#SVGID_102_);enable-background:new    ;}
	.st65{clip-path:url(#SVGID_104_);enable-background:new    ;}
	.st66{clip-path:url(#SVGID_106_);enable-background:new    ;}
	.st67{clip-path:url(#SVGID_108_);enable-background:new    ;}
	.st68{clip-path:url(#SVGID_110_);enable-background:new    ;}
	.st69{clip-path:url(#SVGID_112_);enable-background:new    ;}
	.st70{clip-path:url(#SVGID_114_);enable-background:new    ;}
	.st71{clip-path:url(#SVGID_116_);enable-background:new    ;}
	.st72{clip-path:url(#SVGID_118_);enable-background:new    ;}
	.st73{clip-path:url(#SVGID_120_);enable-background:new    ;}
	.st74{clip-path:url(#SVGID_122_);enable-background:new    ;}
	.st75{clip-path:url(#SVGID_124_);enable-background:new    ;}
	.st76{clip-path:url(#SVGID_126_);enable-background:new    ;}
	.st77{clip-path:url(#SVGID_128_);enable-background:new    ;}
	.st78{clip-path:url(#SVGID_130_);enable-background:new    ;}
	.st79{clip-path:url(#SVGID_132_);enable-background:new    ;}
	.st80{clip-path:url(#SVGID_134_);enable-background:new    ;}
	.st81{clip-path:url(#SVGID_136_);enable-background:new    ;}
	.st82{clip-path:url(#SVGID_138_);enable-background:new    ;}
	.st83{clip-path:url(#SVGID_140_);enable-background:new    ;}
	.st84{clip-path:url(#SVGID_142_);enable-background:new    ;}
	.st85{clip-path:url(#SVGID_144_);enable-background:new    ;}
	.st86{clip-path:url(#SVGID_146_);enable-background:new    ;}
	.st87{clip-path:url(#SVGID_148_);enable-background:new    ;}
	.st88{fill:#FFA500;}
	.st89{fill:#073344;}
	.st90{fill:#ECEEF1;}
</style>
<circle class="st0" cx="256" cy="256" r="204"/>
<g>
	<g>
		<g class="st1">
			<g>
				<polygon class="st2" points="187.29,377.71 164.49,365.31 164.75,225.54 187.54,237.94 				"/>
			</g>
			<g>
				<polygon class="st2" points="165.09,241.1 142.3,228.7 142.37,189.77 165.16,202.17 				"/>
			</g>
			<g>
				<polygon class="st3" points="165.16,202.17 142.37,189.77 205.2,180.95 227.99,193.34 				"/>
			</g>
			<g>
				<polygon class="st4" points="227.99,193.34 227.66,372.04 187.29,377.71 187.54,237.94 165.09,241.1 165.16,202.17 				"/>
			</g>
		</g>
		<g class="st1">
			<g class="st1">
				<defs>
					<path id="SVGID_113_" class="st1" d="M336.05,248.48l22.79,12.4c-1.69-0.92-3.48-1.74-5.37-2.45l-22.79-12.4
						C332.58,246.75,334.37,247.56,336.05,248.48z"/>
				</defs>
				<clipPath id="SVGID_2_">
					<use xlink:href="#SVGID_113_"  style="overflow:visible;"/>
				</clipPath>
				<g class="st5">
					<path class="st14" d="M353.48,258.43l-22.79-12.4c1.34,0.51,2.62,1.07,3.86,1.67l22.79,12.4
						C356.1,259.49,354.82,258.94,353.48,258.43"/>
					<path class="st15" d="M357.34,260.1l-22.79-12.4c0.51,0.25,1.01,0.51,1.51,0.78l22.79,12.4
						C358.35,260.61,357.85,260.35,357.34,260.1"/>
				</g>
			</g>
			<g class="st1">
				<defs>
					<path id="SVGID_115_" class="st1" d="M308.75,271.15l22.79,12.4c1.04,0.57,2.02,1.24,2.94,2.02c4.3,3.64,6.45,9.05,6.43,16.23
						c-0.01,6.86-2.1,12.78-6.26,17.77l-22.79-12.4c4.17-4.99,6.25-10.91,6.26-17.77c0.01-7.18-2.13-12.59-6.43-16.23
						C310.78,272.39,309.8,271.72,308.75,271.15z"/>
				</defs>
				<clipPath id="SVGID_4_">
					<use xlink:href="#SVGID_115_"  style="overflow:visible;"/>
				</clipPath>
				<g class="st11">
					<path class="st7" d="M334.66,319.56l-22.79-12.4c0.51-0.61,0.98-1.23,1.42-1.86l22.79,12.4
						C335.64,318.34,335.16,318.96,334.66,319.56"/>
					<path class="st8" d="M336.08,317.71l-22.79-12.4c0.61-0.86,1.16-1.75,1.65-2.67l22.79,12.4
						C337.24,315.95,336.69,316.84,336.08,317.71"/>
					<path class="st9" d="M337.73,315.04l-22.79-12.4c0.58-1.08,1.08-2.19,1.5-3.34l22.79,12.4
						C338.81,312.85,338.31,313.96,337.73,315.04"/>
					<path class="st10" d="M339.23,311.7l-22.79-12.4c1.12-3.05,1.68-6.35,1.69-9.91c0.01-7.18-2.13-12.59-6.43-16.23
						c-0.92-0.78-1.9-1.45-2.94-2.02l22.79,12.4c1.04,0.57,2.02,1.24,2.94,2.02c4.3,3.64,6.45,9.05,6.43,16.23
						C340.92,305.35,340.35,308.65,339.23,311.7"/>
				</g>
			</g>
			<g class="st1">
				<defs>
					<path id="SVGID_117_" class="st1" d="M303.34,326.62l-22.79-12.4c3.84,2.09,8.57,2.74,14.18,1.96
						c7.26-1.02,12.97-4.03,17.14-9.01l22.79,12.4c-4.17,4.99-9.88,7.99-17.14,9.01C311.91,329.37,307.18,328.71,303.34,326.62z"/>
				</defs>
				<clipPath id="SVGID_6_">
					<use xlink:href="#SVGID_117_"  style="overflow:visible;"/>
				</clipPath>
				<g class="st12">
					<path class="st15" d="M303.34,326.62l-22.79-12.4c0.21,0.11,0.41,0.22,0.63,0.32l22.79,12.4
						C303.75,326.84,303.54,326.73,303.34,326.62"/>
					<path class="st14" d="M303.96,326.94l-22.79-12.4c1.08,0.53,2.23,0.96,3.45,1.27l22.79,12.4
						C306.2,327.9,305.05,327.48,303.96,326.94"/>
					<path class="st13" d="M307.41,328.22l-22.79-12.4c2.97,0.77,6.34,0.89,10.11,0.36c3.21-0.45,6.12-1.29,8.72-2.52l22.79,12.4
						c-2.6,1.23-5.51,2.07-8.72,2.52C313.75,329.11,310.38,328.99,307.41,328.22"/>
					<path class="st14" d="M326.24,326.06l-22.79-12.4c1.25-0.59,2.44-1.27,3.55-2.04l22.79,12.4
						C328.68,324.79,327.49,325.47,326.24,326.06"/>
					<path class="st15" d="M329.79,324.01L307,311.62c0.85-0.59,1.65-1.22,2.42-1.91l22.79,12.4
						C331.45,322.79,330.64,323.43,329.79,324.01"/>
					<path class="st6" d="M332.21,322.1l-22.79-12.4c0.7-0.63,1.37-1.3,2-2.02l22.79,12.4C333.58,320.8,332.92,321.47,332.21,322.1"
						/>
					<path class="st7" d="M334.21,320.08l-22.79-12.4c0.15-0.17,0.3-0.34,0.44-0.52l22.79,12.4
						C334.51,319.74,334.36,319.91,334.21,320.08"/>
				</g>
			</g>
			<g class="st1">
				<defs>
					<path id="SVGID_119_" class="st1" d="M306.31,250.56l-22.79-12.4c3.16,1.72,6.94,2.27,11.35,1.65
						c5.74-0.81,10.44-3.34,14.08-7.61c3.64-4.26,5.46-9.57,5.47-15.94c0.01-6.69-1.76-11.62-5.3-14.8c-0.83-0.74-1.73-1.38-2.7-1.9
						l22.79,12.4c0.96,0.52,1.86,1.16,2.7,1.9c3.54,3.18,5.31,8.1,5.3,14.8c-0.01,6.36-1.83,11.68-5.47,15.94
						c-3.64,4.27-8.33,6.81-14.08,7.61C313.25,252.83,309.47,252.27,306.31,250.56z"/>
				</defs>
				<clipPath id="SVGID_8_">
					<use xlink:href="#SVGID_119_"  style="overflow:visible;"/>
				</clipPath>
				<g class="st16">
					<path class="st15" d="M306.31,250.56l-22.79-12.4c0.18,0.1,0.36,0.19,0.54,0.28l22.79,12.4
						C306.66,250.74,306.49,250.65,306.31,250.56"/>
					<path class="st14" d="M306.85,250.83l-22.79-12.4c0.91,0.45,1.87,0.8,2.89,1.07l22.79,12.4
						C308.72,251.64,307.76,251.28,306.85,250.83"/>
					<path class="st13" d="M309.73,251.9l-22.79-12.4c2.37,0.61,5.01,0.72,7.93,0.31c2.45-0.34,4.71-1,6.78-1.98l22.79,12.4
						c-2.07,0.97-4.33,1.63-6.78,1.98C314.74,252.62,312.1,252.51,309.73,251.9"/>
					<path class="st14" d="M324.44,250.23l-22.79-12.4c1.05-0.5,2.06-1.07,3.01-1.74l22.79,12.4
						C326.5,249.15,325.49,249.73,324.44,250.23"/>
					<path class="st15" d="M327.45,248.49l-22.79-12.4c0.75-0.52,1.46-1.08,2.15-1.7l22.79,12.4
						C328.92,247.41,328.2,247.98,327.45,248.49"/>
					<path class="st6" d="M329.6,246.79l-22.79-12.4c0.64-0.58,1.26-1.2,1.85-1.87l22.79,12.4
						C330.86,245.59,330.25,246.21,329.6,246.79"/>
					<path class="st7" d="M331.45,244.92l-22.79-12.4c0.1-0.11,0.19-0.22,0.29-0.33c0.46-0.54,0.89-1.1,1.29-1.67l22.79,12.4
						c-0.4,0.57-0.83,1.13-1.29,1.67C331.64,244.7,331.55,244.82,331.45,244.92"/>
					<path class="st8" d="M333.03,242.92l-22.79-12.4c0.49-0.71,0.95-1.44,1.35-2.19l22.79,12.4
						C333.98,241.49,333.53,242.22,333.03,242.92"/>
					<path class="st9" d="M334.38,240.73l-22.79-12.4c0.49-0.91,0.92-1.87,1.28-2.85l22.79,12.4
						C335.3,238.87,334.88,239.82,334.38,240.73"/>
					<path class="st10" d="M335.67,237.88l-22.79-12.4c1.02-2.78,1.53-5.85,1.54-9.22c0.01-6.69-1.76-11.62-5.3-14.8
						c-0.83-0.74-1.73-1.38-2.7-1.9l22.79,12.4c0.96,0.52,1.86,1.16,2.7,1.9c3.54,3.18,5.31,8.1,5.3,14.8
						C337.2,232.02,336.69,235.1,335.67,237.88"/>
				</g>
			</g>
			<g class="st1">
				<defs>
					<path id="SVGID_121_" class="st1" d="M278.81,357.26l-22.79-12.4c-5.75-3.13-10.54-7.39-14.37-12.77
						c-5.42-7.64-8.13-17.25-8.11-28.84c0.02-10.12,2.22-19.2,6.63-27.24c4.4-8.04,10.61-14.66,18.62-19.87l22.79,12.4
						c-8.02,5.21-14.23,11.83-18.62,19.87c-4.4,8.04-6.61,17.12-6.63,27.24c-0.02,11.59,2.68,21.2,8.11,28.84
						C268.27,349.87,273.05,354.13,278.81,357.26z"/>
				</defs>
				<clipPath id="SVGID_10_">
					<use xlink:href="#SVGID_121_"  style="overflow:visible;"/>
				</clipPath>
				<g class="st17">
					<path class="st10" d="M278.81,357.26l-22.79-12.4c-5.75-3.13-10.54-7.39-14.37-12.77c-5.42-7.64-8.13-17.25-8.11-28.84
						c0.01-7.28,1.16-14.02,3.44-20.22l22.79,12.4c-2.28,6.2-3.42,12.94-3.44,20.22c-0.02,11.59,2.68,21.2,8.11,28.84
						C268.27,349.87,273.05,354.13,278.81,357.26"/>
					<path class="st9" d="M259.76,295.42l-22.79-12.4c0.85-2.3,1.85-4.53,3.01-6.68l22.79,12.4
						C261.61,290.89,260.61,293.12,259.76,295.42"/>
					<path class="st8" d="M262.77,288.74l-22.79-12.4c0.06-0.11,0.12-0.22,0.18-0.33c0.97-1.78,2.04-3.5,3.19-5.14l22.79,12.4
						c-1.15,1.64-2.22,3.36-3.19,5.14C262.89,288.51,262.83,288.63,262.77,288.74"/>
					<path class="st7" d="M266.14,283.26l-22.79-12.4c1.14-1.63,2.37-3.19,3.69-4.68l22.79,12.4
						C268.51,280.08,267.29,281.64,266.14,283.26"/>
					<path class="st6" d="M269.83,278.59l-22.79-12.4c1.37-1.55,2.83-3.03,4.39-4.43l22.79,12.4
						C272.67,275.56,271.2,277.04,269.83,278.59"/>
					<path class="st15" d="M274.22,274.15l-22.79-12.4c1.82-1.64,3.77-3.17,5.84-4.61l22.79,12.4
						C277.99,270.98,276.04,272.52,274.22,274.15"/>
					<path class="st14" d="M280.07,269.55l-22.79-12.4c0.5-0.34,1-0.68,1.51-1.01l22.79,12.4
						C281.07,268.86,280.56,269.2,280.07,269.55"/>
				</g>
			</g>
			<g class="st1">
				<defs>
					<path id="SVGID_123_" class="st1" d="M278.23,266.9l-22.79-12.4c-11.96-6.51-17.93-17.77-17.9-33.81
						c0.02-8.81,2.15-17.15,6.4-25.01c4.24-7.86,10.69-14.55,19.31-20.09c8.63-5.53,19.21-9.18,31.77-10.95
						c12.55-1.76,23.09-1.08,31.63,2.04c2.2,0.8,4.25,1.73,6.16,2.77l22.79,12.4c-1.91-1.04-3.97-1.96-6.16-2.77
						c-8.54-3.12-19.08-3.8-31.63-2.04c-12.55,1.76-23.14,5.41-31.77,10.95c-8.62,5.53-15.06,12.23-19.31,20.09
						c-4.25,7.86-6.38,16.2-6.4,25.01C260.3,249.13,266.27,260.4,278.23,266.9z"/>
				</defs>
				<clipPath id="SVGID_12_">
					<use xlink:href="#SVGID_123_"  style="overflow:visible;"/>
				</clipPath>
				<g class="st18">
					<path class="st10" d="M278.23,266.9l-22.79-12.4c-11.96-6.51-17.93-17.77-17.9-33.81c0.01-6.2,1.07-12.16,3.18-17.89
						l22.79,12.4c-2.11,5.73-3.16,11.69-3.18,17.89C260.3,249.13,266.27,260.4,278.23,266.9"/>
					<path class="st9" d="M263.51,215.21l-22.79-12.4c0.88-2.39,1.94-4.73,3.18-7.04l22.79,12.4
						C265.45,210.47,264.39,212.82,263.51,215.21"/>
					<path class="st8" d="M266.69,208.17l-22.79-12.4c0.01-0.03,0.03-0.05,0.04-0.08c0.89-1.65,1.88-3.26,2.97-4.81l22.79,12.4
						c-1.09,1.55-2.08,3.16-2.97,4.81C266.72,208.12,266.7,208.14,266.69,208.17"/>
					<path class="st7" d="M269.7,203.28l-22.79-12.4c1.08-1.53,2.25-3.01,3.51-4.45l22.79,12.4
						C271.95,200.27,270.78,201.75,269.7,203.28"/>
					<path class="st6" d="M273.21,198.83l-22.79-12.4c1.37-1.55,2.85-3.04,4.44-4.48l22.79,12.4
						C276.07,195.79,274.58,197.28,273.21,198.83"/>
					<path class="st15" d="M277.66,194.36l-22.79-12.4c1.95-1.75,4.06-3.42,6.34-5l22.79,12.4
						C281.72,190.94,279.61,192.6,277.66,194.36"/>
					<path class="st14" d="M284,189.36l-22.79-12.4c0.66-0.46,1.34-0.91,2.04-1.36c2.25-1.45,4.64-2.76,7.16-3.95l22.79,12.4
						c-2.52,1.19-4.91,2.5-7.16,3.95C285.34,188.45,284.66,188.9,284,189.36"/>
					<path class="st13" d="M293.19,184.05l-22.79-12.4c7.13-3.36,15.33-5.69,24.61-7c10.63-1.49,19.82-1.23,27.57,0.78l22.79,12.4
						c-7.75-2.01-16.94-2.27-27.57-0.78C308.53,178.36,300.33,180.69,293.19,184.05"/>
					<path class="st14" d="M345.37,177.83l-22.79-12.4c1.4,0.36,2.75,0.78,4.06,1.26c1.62,0.59,3.16,1.25,4.62,1.97l22.79,12.4
						c-1.46-0.72-3-1.38-4.62-1.97C348.12,178.62,346.77,178.2,345.37,177.83"/>
					<path class="st15" d="M354.05,181.06l-22.79-12.4c0.52,0.26,1.04,0.52,1.55,0.8l22.79,12.4
						C355.09,181.59,354.58,181.32,354.05,181.06"/>
				</g>
			</g>
			<g>
				<path class="st4" d="M372.26,273.28c4.38,6.81,6.55,15.19,6.54,25.15c-0.02,11.59-2.76,21.96-8.23,31.13
					c-5.45,9.17-12.84,16.61-22.14,22.32c-9.31,5.72-19.63,9.37-30.97,10.97c-11.33,1.59-21.66,0.84-30.94-2.26
					c-9.29-3.09-16.65-8.46-22.08-16.1c-5.42-7.64-8.13-17.25-8.11-28.84c0.02-10.12,2.22-19.2,6.63-27.24
					c4.4-8.04,10.61-14.66,18.62-19.87c-14.2-6.16-21.28-17.97-21.24-35.44c0.02-8.81,2.15-17.15,6.4-25.01
					c4.24-7.86,10.69-14.55,19.31-20.09c8.63-5.53,19.21-9.18,31.77-10.95c12.55-1.76,23.09-1.08,31.63,2.04
					c8.53,3.12,14.9,8.02,19.13,14.69c4.22,6.67,6.32,14.41,6.31,23.22c-0.02,8.81-1.96,16.76-5.83,23.82
					c-3.87,7.07-9.06,12.94-15.56,17.61C361.63,261.53,367.9,266.48,372.26,273.28z M334.66,319.56c4.17-4.99,6.25-10.91,6.26-17.77
					c0.01-7.18-2.13-12.59-6.43-16.23c-4.29-3.63-9.93-4.97-16.88-3.99c-7.11,1-12.85,3.89-17.25,8.67
					c-4.39,4.77-6.6,10.84-6.61,18.18c-0.01,6.86,2.13,12.18,6.43,15.99c4.3,3.8,10.08,5.19,17.34,4.17
					C324.78,327.56,330.48,324.55,334.66,319.56 M303.56,217.96c-3.56,4.26-5.35,9.73-5.36,16.42c-0.01,6.36,1.8,11.13,5.42,14.3
					c3.62,3.16,8.3,4.34,14.05,3.53c5.74-0.81,10.44-3.34,14.08-7.61c3.64-4.26,5.46-9.57,5.47-15.94c0.01-6.69-1.76-11.62-5.3-14.8
					c-3.55-3.17-8.27-4.34-14.17-3.51C311.84,211.17,307.11,213.71,303.56,217.96"/>
			</g>
		</g>
	</g>
</g>
</svg>
