<?xml version="1.0" encoding="UTF-8" standalone="no"?> <svg id="Layer_1" data-name="Layer 1" xmlns="http://www.w3.org/2000/svg" viewBox="0 0 64 64"><defs><style>.cls-1{fill:#34495e;}.cls-2{fill:#10cfc9;}.cls-3{fill:#fff;opacity:0.55;}</style></defs><path class="cls-1" d="M33.39,32.59c-.13-.13-.26-.25-.39-.38a11.278,11.278,0,0,0-7.72-2.98,10.889,10.889,0,0,0-7.79,3.36,11.392,11.392,0,0,0,0,15.9,11.114,11.114,0,0,0,7.89,3.23A11.562,11.562,0,0,0,33,48.85l.39-.36a11.507,11.507,0,0,0,3.23-8A11.154,11.154,0,0,0,33.39,32.59ZM33,47.78c-.05.06-.1.11-.15.16A10.476,10.476,0,1,1,18.03,33.13,10.09,10.09,0,0,1,25.29,30h.09a10.346,10.346,0,0,1,4.02.81,10.7,10.7,0,0,1,3.45,2.32l.15.15A10.626,10.626,0,0,1,33,47.78Zm.39-15.19c-.13-.13-.26-.25-.39-.38a11.278,11.278,0,0,0-7.72-2.98,10.889,10.889,0,0,0-7.79,3.36,11.392,11.392,0,0,0,0,15.9,11.114,11.114,0,0,0,7.89,3.23A11.562,11.562,0,0,0,33,48.85l.39-.36a11.507,11.507,0,0,0,3.23-8A11.154,11.154,0,0,0,33.39,32.59ZM33,47.78c-.05.06-.1.11-.15.16A10.476,10.476,0,1,1,18.03,33.13,10.09,10.09,0,0,1,25.29,30h.09a10.346,10.346,0,0,1,4.02.81,10.7,10.7,0,0,1,3.45,2.32l.15.15A10.626,10.626,0,0,1,33,47.78Zm.39-15.19c-.13-.13-.26-.25-.39-.38a11.278,11.278,0,0,0-7.72-2.98,10.889,10.889,0,0,0-7.79,3.36,11.392,11.392,0,0,0,0,15.9,11.114,11.114,0,0,0,7.89,3.23A11.562,11.562,0,0,0,33,48.85l.39-.36a11.507,11.507,0,0,0,3.23-8A11.154,11.154,0,0,0,33.39,32.59ZM33,47.78c-.05.06-.1.11-.15.16A10.476,10.476,0,1,1,18.03,33.13,10.09,10.09,0,0,1,25.29,30h.09a10.346,10.346,0,0,1,4.02.81,10.7,10.7,0,0,1,3.45,2.32l.15.15A10.626,10.626,0,0,1,33,47.78Zm.39-15.19c-.13-.13-.26-.25-.39-.38a11.278,11.278,0,0,0-7.72-2.98,10.889,10.889,0,0,0-7.79,3.36,11.392,11.392,0,0,0,0,15.9,11.114,11.114,0,0,0,7.89,3.23A11.562,11.562,0,0,0,33,48.85l.39-.36a11.507,11.507,0,0,0,3.23-8A11.154,11.154,0,0,0,33.39,32.59ZM33,47.78c-.05.06-.1.11-.15.16A10.476,10.476,0,1,1,18.03,33.13,10.09,10.09,0,0,1,25.29,30h.09a10.346,10.346,0,0,1,4.02.81,10.7,10.7,0,0,1,3.45,2.32l.15.15A10.626,10.626,0,0,1,33,47.78ZM54.42,11.56a.9.9,0,0,0-.62-.25l-16.07.43a.8.8,0,0,0-.58.26.814.814,0,0,0-.23.59l.13,4.62a.828.828,0,0,0,.85.81l5.6-.12-8.68,8.68A16.5,16.5,0,0,0,33,25.53a16.771,16.771,0,1,0-7.56,31.76A16.5,16.5,0,0,0,33,55.47a16.85,16.85,0,0,0,6.33-24.4l8.72-8.73-.24,5.58a.836.836,0,0,0,.79.87l4.61.25a.762.762,0,0,0,.61-.22.777.777,0,0,0,.27-.58l.57-16.06A.836.836,0,0,0,54.42,11.56Zm-13,28.91a15.968,15.968,0,0,1-4.7,11.36A16.389,16.389,0,0,1,33,54.62,16.037,16.037,0,0,1,14.15,29.11,15.985,15.985,0,0,1,41.42,40.47ZM53.33,28.21a.068.068,0,0,1-.07.07l-4.62-.25c-.03,0-.06-.04-.06-.07l.28-6.57a.381.381,0,0,0-.23-.36.353.353,0,0,0-.42.08l-9.33,9.32a17.784,17.784,0,0,0-1.62-1.87,16.19,16.19,0,0,0-1.8-1.53l9.26-9.26a.385.385,0,0,0,.08-.42.371.371,0,0,0-.36-.23l-6.56.14a.068.068,0,0,1-.07-.07l-.12-4.62a.076.076,0,0,1,.02-.05c0-.01.02-.02.04-.02l16.07-.42a.059.059,0,0,1,.05.02.076.076,0,0,1,.02.05ZM33,32.21a11.278,11.278,0,0,0-7.72-2.98,10.889,10.889,0,0,0-7.79,3.36,11.392,11.392,0,0,0,0,15.9,11.114,11.114,0,0,0,7.89,3.23A11.562,11.562,0,0,0,33,48.85l.39-.36a11.507,11.507,0,0,0,3.23-8,11.154,11.154,0,0,0-3.23-7.9C33.26,32.46,33.13,32.34,33,32.21Zm0,15.57c-.05.06-.1.11-.15.16A10.476,10.476,0,1,1,18.03,33.13,10.09,10.09,0,0,1,25.29,30h.09a10.346,10.346,0,0,1,4.02.81,10.7,10.7,0,0,1,3.45,2.32l.15.15A10.626,10.626,0,0,1,33,47.78Zm.39-15.19c-.13-.13-.26-.25-.39-.38a11.278,11.278,0,0,0-7.72-2.98,10.889,10.889,0,0,0-7.79,3.36,11.392,11.392,0,0,0,0,15.9,11.114,11.114,0,0,0,7.89,3.23A11.562,11.562,0,0,0,33,48.85l.39-.36a11.507,11.507,0,0,0,3.23-8A11.154,11.154,0,0,0,33.39,32.59ZM33,47.78c-.05.06-.1.11-.15.16A10.476,10.476,0,1,1,18.03,33.13,10.09,10.09,0,0,1,25.29,30h.09a10.346,10.346,0,0,1,4.02.81,10.7,10.7,0,0,1,3.45,2.32l.15.15A10.626,10.626,0,0,1,33,47.78Zm.39-15.19c-.13-.13-.26-.25-.39-.38a11.278,11.278,0,0,0-7.72-2.98,10.889,10.889,0,0,0-7.79,3.36,11.392,11.392,0,0,0,0,15.9,11.114,11.114,0,0,0,7.89,3.23A11.562,11.562,0,0,0,33,48.85l.39-.36a11.507,11.507,0,0,0,3.23-8A11.154,11.154,0,0,0,33.39,32.59ZM33,47.78c-.05.06-.1.11-.15.16A10.476,10.476,0,1,1,18.03,33.13,10.09,10.09,0,0,1,25.29,30h.09a10.346,10.346,0,0,1,4.02.81,10.7,10.7,0,0,1,3.45,2.32l.15.15A10.626,10.626,0,0,1,33,47.78Z"/><path class="cls-2" d="M53.89,12.15l-.56,16.06a.068.068,0,0,1-.07.07l-4.62-.25c-.03,0-.06-.04-.06-.07l.28-6.57a.381.381,0,0,0-.23-.36.353.353,0,0,0-.42.08l-9.33,9.32a17.784,17.784,0,0,0-1.62-1.87,16.19,16.19,0,0,0-1.8-1.53l9.26-9.26a.385.385,0,0,0,.08-.42.371.371,0,0,0-.36-.23l-6.56.14a.068.068,0,0,1-.07-.07l-.12-4.62a.076.076,0,0,1,.02-.05c0-.01.02-.02.04-.02l16.07-.42a.059.059,0,0,1,.05.02A.076.076,0,0,1,53.89,12.15Z"/><path class="cls-2" d="M36.72,29.11A16.043,16.043,0,0,0,33,26.41a16.271,16.271,0,0,0-18.85,2.7A16.026,16.026,0,0,0,33,54.62a16.389,16.389,0,0,0,3.72-2.79,16.079,16.079,0,0,0,0-22.72ZM33.39,48.49l-.39.36a11.562,11.562,0,0,1-7.62,2.87,11.114,11.114,0,0,1-7.89-3.23,11.392,11.392,0,0,1,0-15.9,10.889,10.889,0,0,1,7.79-3.36A11.278,11.278,0,0,1,33,32.21c.13.13.26.25.39.38a11.154,11.154,0,0,1,3.23,7.9A11.507,11.507,0,0,1,33.39,48.49Z"/><path class="cls-3" d="M54.42,11.56a.836.836,0,0,1,.24.62l-.57,16.06a.777.777,0,0,1-.27.58.762.762,0,0,1-.61.22l-4.61-.25a.836.836,0,0,1-.79-.87l.24-5.58-8.72,8.73A16.853,16.853,0,0,1,33,55.47V25.53a16.5,16.5,0,0,1,1.82,1.05L43.5,17.9l-5.6.12a.828.828,0,0,1-.85-.81l-.13-4.62a.814.814,0,0,1,.23-.59.8.8,0,0,1,.58-.26l16.07-.43A.9.9,0,0,1,54.42,11.56Z"/></svg>