<?xml version="1.0" encoding="utf-8"?>
<!-- Generator: Adobe Illustrator 21.0.0, SVG Export Plug-In . SVG Version: 6.00 Build 0)  -->
<svg version="1.1" id="Layer_1" xmlns="http://www.w3.org/2000/svg" xmlns:xlink="http://www.w3.org/1999/xlink" x="0px" y="0px"
	 viewBox="0 0 512 512" style="enable-background:new 0 0 512 512;" xml:space="preserve">
<style type="text/css">
	.st0{fill:#F4607F;}
	.st1{fill:#FFFFFF;}
	.st2{opacity:0.1;fill:#231F20;}
</style>
<title>broken-heart-flat</title>
<g>
	<path class="st0" d="M466.1,64.8C436.9,35.1,397,18.4,355.3,18.5h-0.1c-3.5,0-7,0.1-10.4,0.4l-145,146.8l83.1,83L148.3,388.2
		l107.6,105.3l210-205.4l0.2-0.2c29.5-29.6,46-69.8,45.9-111.6C512.2,134.6,495.6,94.4,466.1,64.8z"/>
	<path class="st0" d="M145.6,165.8L255.9,54.2C193.7,2.9,102.6,7.5,45.8,64.9c-61.1,61.5-61.1,161.6,0.2,223.3l74.7,73.2L229,249.2
		L145.6,165.8z"/>
</g>
<path class="st1" d="M435.2,172.1h-38.4c0-21.2-17.2-38.4-38.4-38.4V95.3C400.8,95.4,435.1,129.7,435.2,172.1z"/>
<path class="st2" d="M255.9,54.2L255.9,54.2"/>
<path class="st2" d="M344.8,18.9l-88.9,90v112.9l27,27l-27,28v216.9l210-205.4l0.2-0.2c29.5-29.6,46-69.8,45.9-111.6
	c0.2-41.8-16.4-81.9-45.9-111.5c-29.2-29.7-69.2-46.4-110.9-46.3h-0.1C351.7,18.5,348.2,18.6,344.8,18.9"/>
</svg>
