<?xml version="1.0" encoding="UTF-8" standalone="no"?> <svg xmlns="http://www.w3.org/2000/svg" viewBox="0 0 48 48"><defs><style>.cls-1{fill:#eaeff0;}.cls-2{fill:#8fa5a5;}.cls-3{fill:#fd3730;}.cls-4{fill:#f87600;}</style></defs><title>No Smoking</title><g id="No_Smoking" data-name="No Smoking"><path class="cls-1" d="M39,30H9a1,1,0,0,1-1-1V26a1,1,0,0,1,1-1H39a1,1,0,0,1,1,1v3A1,1,0,0,1,39,30Z"/><path class="cls-2" d="M36,23a1,1,0,0,1-1-1,2,2,0,0,0-2-2H29a7.008,7.008,0,0,1-7-7V12a1,1,0,0,1,2,0v1a5.006,5.006,0,0,0,5,5h4a4,4,0,0,1,4,4A1,1,0,0,1,36,23Z"/><path class="cls-2" d="M36,18a1,1,0,0,1-.9-.553A2.6,2.6,0,0,0,32.764,16H31a4,4,0,0,1-4-4V11a1,1,0,0,1,2,0v1a2,2,0,0,0,2,2h1.764A4.6,4.6,0,0,1,36.9,16.553,1,1,0,0,1,36,18Z"/><path class="cls-3" d="M24,2A22,22,0,1,0,46,24,22.025,22.025,0,0,0,24,2ZM44,24a19.9,19.9,0,0,1-5.191,13.4l-28.2-28.2A19.966,19.966,0,0,1,44,24ZM4,24A19.9,19.9,0,0,1,9.191,10.605l28.2,28.2A19.966,19.966,0,0,1,4,24Z"/><path class="cls-4" d="M9,30h8V25H9a1,1,0,0,0-1,1v3A1,1,0,0,0,9,30Z"/><path class="cls-2" d="M39,30H36V25h3a1,1,0,0,1,1,1v3A1,1,0,0,1,39,30Z"/></g></svg>