<?xml version="1.0" encoding="UTF-8" standalone="no"?> <svg id="Layer_1" data-name="Layer 1" xmlns="http://www.w3.org/2000/svg" viewBox="0 0 64 64"><rect x="25" y="4" width="14" height="14" rx="1" fill="#7d97b3"/><path d="M38.71,4.29,25.29,17.71A1.014,1.014,0,0,1,25,17V5a1,1,0,0,1,1-1H38A1.014,1.014,0,0,1,38.71,4.29Z" fill="#6b8199"/><circle cx="32" cy="42.75" r="4.25" fill="#ffd9a6"/><path d="M25,63V53l-4.827,1.609a2,2,0,0,1-2.047-.483L12,48l3-2,5,4,4.464-1.785A2.992,2.992,0,0,1,25.578,48H38.422a2.992,2.992,0,0,1,1.114.215L44,50l5-4,3,2-6.126,6.126a2,2,0,0,1-2.047.483L39,53V63Z" fill="#7cb2f8"/><path d="M24,17a2,2,0,0,0,2,2h1v2h2V19h2v2h2V19h2v2h2V19h1a2,2,0,0,0,2-2V16h2V14H40V12h2V10H40V8h2V6H40V5a2,2,0,0,0-2-2H37V1H35V3H33V1H31V3H29V1H27V3H26a2,2,0,0,0-2,2V6H22V8h2v2H22v2h2v2H22v2h2ZM26,5H38V17H26Z" fill="#404040"/><path d="M52.741,35.966l.518-1.932-17.4-4.668,11.183-3,.584,4.086,2.1.564-.737-5.158-.123.018,3.392-.91-.518-1.932L33,28.062V25H31v3.062L12.259,23.034l-.518,1.932,3.392.91-.123-.018-.737,5.158,2.1-.564.584-4.086,11.183,3-17.4,4.668.518,1.932,7.95-2.133L20.94,48.547l-.771.308-4.544-3.636a1,1,0,0,0-1.18-.051l-.192.128,1.2-8.384-2.1.563-1.33,9.309-.576.384a1,1,0,0,0-.152,1.539l6.126,6.126a2.981,2.981,0,0,0,3.07.725L24,54.387V63h2V53a1,1,0,0,0-1.316-.949L19.856,53.66a.992.992,0,0,1-1.023-.241L13.57,48.155l1.376-.917,4.429,3.543a1,1,0,0,0,1,.147l4.462-1.785A2,2,0,0,1,25.578,49H38.422a1.988,1.988,0,0,1,.743.143l4.463,1.785a1,1,0,0,0,1-.147l4.429-3.543,1.376.917-5.263,5.264a.992.992,0,0,1-1.023.241l-4.828-1.609A1,1,0,0,0,38,53V63h2V54.387l3.511,1.171a2.98,2.98,0,0,0,3.07-.725l6.126-6.126a1,1,0,0,0-.152-1.539l-.576-.384-1.33-9.309-2.1-.563,1.2,8.384-.192-.128a1,1,0,0,0-1.18.051l-4.544,3.636-.771-.308,1.731-14.714ZM32,46a3.25,3.25,0,1,1,3.25-3.25A3.254,3.254,0,0,1,32,46Zm9.137,1.777-1.229-.491A3.984,3.984,0,0,0,38.422,47H35.057a5.25,5.25,0,1,0-6.114,0H25.578a3.984,3.984,0,0,0-1.486.286l-1.229.492-1.7-14.469L32,30.4l10.839,2.908Z" fill="#404040"/><rect x="34" y="13" width="2" height="2" fill="#404040"/></svg>