<?xml version="1.0" encoding="UTF-8" standalone="no"?> <svg xmlns="http://www.w3.org/2000/svg" viewBox="0 0 512 512"><title>Siberian_husky</title><g id="Siberian_husky"><path d="M272.4185,132.3028c3.1351-22.5467,12.15-64.2241,37.85-103.6814a14.3858,14.3858,0,0,1,24.1321.13c33.8251,52.01,39.3221,107.8177,39.3221,118.597v24.1331a229.9382,229.9382,0,0,0,54.739,148.9189h0s-8.4,18.8-37.2,29.6l18.8,20.29S388.3269,489.8725,256.0005,489.8725,101.9389,370.2908,101.9389,370.2908l18.8-20.29c-28.8-10.8-37.2-29.6-37.2-29.6h0a229.9382,229.9382,0,0,0,54.739-148.9189V147.3486c0-10.7793,5.4969-66.5866,39.3221-118.597a14.3857,14.3857,0,0,1,24.132-.13c25.7009,39.4573,34.7154,81.1347,37.8505,103.6814l-.0008.0089q.9336-.0165,1.8711-.0166h29.1433q.9214,0,1.839.0161" style="fill:#5e4846"/><path d="M256.0005,465.5575a87.4234,87.4234,0,0,0,87.4234-87.4234,23.6159,23.6159,0,0,0-6.69-16.467l-8.4643-8.7439,14.7549-15.2486a23.5882,23.5882,0,0,0,6.6365-16.4005l.0079-93.0441c0-29.8577-24.4334-55.2141-54.2859-54.6549a53.1465,53.1465,0,0,0-39.3824,18.5389,53.1462,53.1462,0,0,0-39.3823-18.5389c-29.8525-.5592-54.2859,24.7972-54.2859,54.6549l.0079,93.0441a23.5878,23.5878,0,0,0,6.6365,16.4005l14.7549,15.2486-8.4644,8.7439a23.6164,23.6164,0,0,0-6.69,16.467A87.4234,87.4234,0,0,0,256.0005,465.5575Z" style="fill:#fff7e9"/><path d="M230.622,338.0429V377.16a25.3786,25.3786,0,1,0,50.7571,0V338.0429a25.3785,25.3785,0,0,1-25.3786-25.3785A25.3784,25.3784,0,0,1,230.622,338.0429Z" style="fill:#ff5850"/><path d="M433.3375,316.2531a223.7654,223.7654,0,0,1-53.2156-144.775V147.3469c0-15.575-7.4141-71.4344-40.3563-122.0907a20.8528,20.8528,0,0,0-17.5218-9.5249h-.0079a20.6157,20.6157,0,0,0-17.33,9.3937C280.3525,62.82,270.6881,102.5562,266.92,125.8906H245.0816c-3.77-23.3351-13.4369-63.0734-37.9878-100.7656a20.6139,20.6139,0,0,0-17.33-9.3937h-.0079a20.8528,20.8528,0,0,0-17.5218,9.5249c-32.9422,50.6563-40.3563,106.5157-40.3563,122.0907v24.1312a223.7654,223.7654,0,0,1-53.2156,144.775,6.3957,6.3957,0,0,0-.9672,6.7531c.35.7813,8.0578,17.4938,32.1922,29.2875L97.2437,365.9375a6.402,6.402,0,0,0-1.6015,5.4937c.2265,1.25,24.264,124.8376,160.3578,124.8376S416.1313,372.6812,416.3578,371.4312a6.402,6.402,0,0,0-1.6015-5.4937l-12.6438-13.6438c24.1344-11.7937,31.8422-28.5062,32.1922-29.2875A6.3957,6.3957,0,0,0,433.3375,316.2531Zm-44.3234,27.75a6.4015,6.4015,0,0,0-2.4485,10.3438L403.1078,372.2c-4.37,18.575-31.964,111.2688-147.1078,111.2688-115.1516,0-142.7422-92.7094-147.1078-111.2688l16.5422-17.8531a6.4015,6.4015,0,0,0-2.4485-10.3438c-18.914-7.0906-28.0531-17.65-31.6609-22.95a236.59,236.59,0,0,0,53.3531-149.575V147.3469c0-.5625,1.6453-58.7688,38.2875-115.1094a7.98,7.98,0,0,1,6.7953-3.7063h.0032a7.7519,7.7519,0,0,1,6.6047,3.5813c22.7519,34.9281,32.0417,71.7945,35.8074,94.2a108.3757,108.3757,0,0,0-36.2028,9.4344,6.4,6.4,0,1,0,5.3157,11.6437,96.0405,96.0405,0,0,1,40.164-8.7h29.1422a96.041,96.041,0,0,1,40.1641,8.7,6.4,6.4,0,1,0,5.3156-11.6437,108.3839,108.3839,0,0,0-36.2494-9.4383c3.7646-22.4039,13.0539-59.268,35.8057-94.1961a7.7516,7.7516,0,0,1,6.6046-3.5813h.0032a7.98,7.98,0,0,1,6.7953,3.7063c36.6422,56.3406,38.2875,114.5469,38.2875,115.1094v24.1312A236.6046,236.6046,0,0,0,420.6734,321.05C417.05,326.3719,407.9109,336.9187,389.0141,344.0031Z" style="fill:#2b1716"/><path d="M306.7578,306.2625a6.4,6.4,0,0,0-6.4,6.4,18.9746,18.9746,0,0,1-37.5152,4.0383,11.0506,11.0506,0,0,0,1.8715-1.8633l14.4922-18.5281a11.001,11.001,0,0,0-8.6641-17.7781H241.5578a11,11,0,0,0-8.6625,17.7781l14.4891,18.525a11.0828,11.0828,0,0,0,1.7875,1.8109,18.976,18.976,0,0,1-37.53-3.9828,6.4,6.4,0,1,0-12.8,0,31.8335,31.8335,0,0,0,25.38,31.13v33.3633a31.7781,31.7781,0,0,0,63.5562,0V343.793a31.8335,31.8335,0,0,0,25.38-31.13A6.4,6.4,0,0,0,306.7578,306.2625Zm-31.78,70.8938a18.9781,18.9781,0,1,1-37.9562,0V343.793A31.8036,31.8036,0,0,0,256,331.7078a31.8036,31.8036,0,0,0,18.9781,12.0852Z" style="fill:#2b1716"/><path d="M219.875,246.3359v-10.139a14.4,14.4,0,0,0-28.8,0v10.139a14.4,14.4,0,0,0,28.8,0Z" style="fill:#2b1716"/><path d="M306.525,221.7969a14.4169,14.4169,0,0,0-14.4,14.4v10.139a14.4,14.4,0,0,0,28.8,0v-10.139A14.4169,14.4169,0,0,0,306.525,221.7969Z" style="fill:#2b1716"/><path d="M295.2641,167.1719A59.7388,59.7388,0,0,0,256,182.9219a59.7378,59.7378,0,0,0-39.2625-15.75,58.4948,58.4948,0,0,0-42.2547,17.0687,62.0516,62.0516,0,0,0-18.5516,43.9875l.0079,93.0469a29.8423,29.8423,0,0,0,8.439,20.8469l10.4469,10.7968-4.1578,4.2938a30.2079,30.2079,0,0,0-8.4906,20.9187,93.8234,93.8234,0,0,0,187.6468.0251,30.2174,30.2174,0,0,0-8.4921-20.9438l-4.1563-4.2938,10.4484-10.7968a29.8492,29.8492,0,0,0,8.4375-20.85l.0079-93.0438a62.0516,62.0516,0,0,0-18.5516-43.9875A58.7439,58.7439,0,0,0,295.2641,167.1719Zm47.9968,154.0969a17.1161,17.1161,0,0,1-4.8359,11.9531L323.67,348.4688a6.3977,6.3977,0,0,0,0,8.9l8.4625,8.7438a17.3336,17.3336,0,0,1,4.8906,12.0187,81.0234,81.0234,0,1,1-162.0468-.025,17.3247,17.3247,0,0,1,4.889-11.9937l8.4641-8.7438a6.3977,6.3977,0,0,0,0-8.9l-14.7531-15.2469a17.1088,17.1088,0,0,1-4.8375-11.95l-.0079-93.0438a49.1781,49.1781,0,0,1,14.7172-34.8531,45.785,45.785,0,0,1,32.2-13.4125c.2829,0,.5657.0031.85.0094a46.92,46.92,0,0,1,34.65,16.3125,6.6141,6.6141,0,0,0,9.7032,0,46.92,46.92,0,0,1,34.6515-16.3125,45.3668,45.3668,0,0,1,33.0485,13.4031,49.1781,49.1781,0,0,1,14.7172,34.8531Z" style="fill:#2b1716"/></g></svg>