<?xml version="1.0" encoding="UTF-8" standalone="no"?> <svg width="512" height="512" viewBox="0 0 512 512" fill="none" xmlns="http://www.w3.org/2000/svg">
<path d="M200 134.059V56H152V134.059C152 155.791 143.367 176.633 128 192V192C112.633 207.367 104 228.209 104 249.941V472C104 476.243 105.686 480.313 108.686 483.314C111.687 486.314 115.757 488 120 488H232C236.243 488 240.313 486.314 243.314 483.314C246.314 480.313 248 476.243 248 472V249.941C248 228.209 239.367 207.367 224 192V192C208.633 176.633 200 155.791 200 134.059V134.059Z" fill="#6A6C65"/>
<path d="M200 56H152L147.578 47.155C146.467 44.9336 145.888 42.4839 145.888 40C145.888 37.5161 146.467 35.0664 147.578 32.845V32.845C148.907 30.1872 150.949 27.952 153.477 26.3897C156.005 24.8275 158.918 24 161.889 24H190.111C193.082 24 195.995 24.8275 198.523 26.3897C201.05 27.952 203.093 30.1872 204.422 32.845V32.845C205.533 35.0664 206.112 37.5161 206.112 40C206.112 42.4839 205.533 44.9336 204.422 47.155L200 56Z" fill="#6A6C65"/>
<path d="M403.246 203.827H284.754L280.741 256H407.259L403.246 203.827Z" fill="#ECEBE6"/>
<path d="M320.088 341.228C322.509 342.741 324.505 344.845 325.889 347.341C327.273 349.838 327.999 352.645 328 355.5V447.012C328 449.578 327.142 452.071 325.562 454.094C323.983 456.117 321.773 457.554 319.283 458.176C312.632 459.839 306.728 463.678 302.509 469.081C298.29 474.485 295.999 481.144 296 488H392C392 481.145 389.709 474.487 385.49 469.083C381.271 463.68 375.367 459.842 368.717 458.179C366.227 457.557 364.017 456.12 362.438 454.097C360.858 452.074 360 449.582 360 447.015V355.5C360 352.645 360.726 349.837 362.11 347.34C363.494 344.842 365.491 342.738 367.912 341.225L320.088 341.228Z" fill="#ECEBE6"/>
<path d="M367.912 341.228C381.121 332.972 391.816 321.256 398.839 307.352C405.861 293.448 408.942 277.887 407.748 262.356L407.259 256H280.741L280.252 262.356C279.058 277.887 282.139 293.448 289.161 307.352C296.184 321.256 306.88 332.972 320.088 341.228H367.912Z" fill="#E42A3C"/>
<path d="M200 56H152V136H200V56Z" fill="#C92535"/>
<path d="M168 380C168 383.183 169.264 386.235 171.515 388.485C173.765 390.736 176.817 392 180 392H248V296H168V380Z" fill="#E6E5E0"/>
<path d="M180 264C176.817 264 173.765 265.264 171.515 267.515C169.264 269.765 168 272.817 168 276V296H248V264H180Z" fill="#C92535"/>
<path d="M120 496H232C238.363 495.993 244.463 493.462 248.963 488.963C253.462 484.464 255.993 478.363 256 472V249.941C256.032 238.125 253.721 226.419 249.199 215.502C244.677 204.585 238.035 194.674 229.657 186.341C222.769 179.491 217.309 171.344 213.592 162.369C209.874 153.395 207.974 143.773 208 134.059V57.8881L211.577 50.7341C213.235 47.3992 214.098 43.7255 214.098 40.0011C214.098 36.2768 213.235 32.6031 211.577 29.2681C209.596 25.2717 206.535 21.9102 202.741 19.5651C198.947 17.2199 194.571 15.9849 190.111 16.0001H161.889C157.429 15.985 153.054 17.2198 149.259 19.5645C145.465 21.9093 142.404 25.2702 140.423 29.2661C138.765 32.6013 137.902 36.2751 137.902 39.9996C137.902 43.7241 138.765 47.398 140.423 50.7331L144 57.8881V134.059C144.026 143.773 142.126 153.396 138.409 162.37C134.691 171.345 129.231 179.493 122.343 186.343C113.965 194.676 107.323 204.587 102.801 215.503C98.2792 226.42 95.9675 238.125 95.9998 249.941V472C96.007 478.363 98.5379 484.464 103.037 488.963C107.537 493.462 113.637 495.993 120 496V496ZM240 384H180C178.939 384 177.922 383.579 177.171 382.829C176.421 382.078 176 381.061 176 380V304H240V384ZM240 288H176V276C176 274.939 176.421 273.922 177.171 273.172C177.922 272.422 178.939 272 180 272H240V288ZM154.733 36.4221C155.393 35.0902 156.414 33.9699 157.679 33.1883C158.944 32.4068 160.402 31.9951 161.889 32.0001H190.111C191.598 31.9951 193.056 32.4068 194.321 33.1886C195.586 33.9704 196.606 35.0909 197.267 36.4231C197.819 37.5348 198.107 38.7593 198.107 40.0006C198.107 41.242 197.819 42.4665 197.267 43.5781L195.056 48.0001H156.944L154.733 43.5771C154.18 42.4655 153.893 41.241 153.893 39.9996C153.893 38.7583 154.18 37.5338 154.733 36.4221V36.4221ZM192 64.0001V128H160V64.0001H192ZM112 249.941C111.973 240.227 113.874 230.604 117.591 221.63C121.309 212.655 126.769 204.507 133.657 197.657C148.139 183.25 157.241 164.31 159.441 144H192.559C194.759 164.31 203.86 183.25 218.343 197.657C225.231 204.507 230.691 212.655 234.409 221.63C238.126 230.604 240.026 240.227 240 249.941V256H180C174.697 256.006 169.614 258.115 165.864 261.865C162.115 265.614 160.006 270.698 160 276V380C160.006 385.303 162.115 390.386 165.864 394.136C169.614 397.885 174.697 399.994 180 400H240V472C239.997 474.121 239.154 476.155 237.654 477.654C236.154 479.154 234.121 479.998 232 480H120C117.879 479.998 115.845 479.154 114.346 477.654C112.846 476.155 112.002 474.121 112 472V249.941Z" fill="black"/>
<path d="M372.152 348.012C386.621 339.004 398.337 326.194 406.021 310.981C413.706 295.767 417.062 278.735 415.725 261.743L411.225 203.213C411.07 201.204 410.163 199.326 408.684 197.957C407.205 196.588 405.264 195.827 403.248 195.827H284.754C282.738 195.827 280.797 196.588 279.318 197.957C277.839 199.327 276.931 201.204 276.777 203.214L272.277 261.743C270.94 278.735 274.297 295.767 281.981 310.981C289.665 326.194 301.382 339.004 315.851 348.012C317.124 348.803 318.173 349.906 318.899 351.217C319.626 352.527 320.004 354.002 320 355.5V447.012C320.001 447.794 319.739 448.554 319.258 449.17C318.776 449.787 318.102 450.224 317.343 450.412C308.956 452.499 301.509 457.334 296.191 464.147C290.872 470.96 287.989 479.357 288 488C288 490.122 288.843 492.157 290.343 493.657C291.843 495.157 293.878 496 296 496H392C394.122 496 396.157 495.157 397.657 493.657C399.157 492.157 400 490.122 400 488C400.01 479.358 397.126 470.962 391.807 464.151C386.489 457.339 379.043 452.505 370.657 450.418C369.898 450.23 369.224 449.793 368.742 449.176C368.261 448.56 367.999 447.8 368 447.018V355.5C367.996 354.001 368.375 352.527 369.102 351.216C369.829 349.905 370.879 348.802 372.152 348.012V348.012ZM292.162 211.827H395.837L398.62 248H289.38L292.162 211.827ZM382.554 480H305.446C306.739 476.553 308.851 473.472 311.6 471.023C314.348 468.573 317.651 466.829 321.224 465.94C325.447 464.889 329.196 462.455 331.875 459.025C334.553 455.595 336.005 451.367 336 447.015V355.5C336 355.249 335.984 355 335.977 354.752C341.297 355.528 346.702 355.528 352.023 354.752C352.016 355.002 352 355.252 352 355.5V447.012C351.995 451.364 353.447 455.592 356.125 459.022C358.803 462.452 362.553 464.886 366.776 465.937C370.349 466.826 373.652 468.571 376.401 471.021C379.15 473.471 381.261 476.552 382.554 480V480ZM363.9 334.294C357.785 337.595 350.945 339.324 343.996 339.324C337.047 339.324 330.207 337.595 324.092 334.294C312.321 326.906 302.768 316.472 296.443 304.098C290.119 291.723 287.259 277.868 288.167 264H399.833C400.74 277.869 397.879 291.724 391.554 304.099C385.228 316.474 375.672 326.907 363.9 334.294V334.294Z" fill="black"/>
<path d="M144 224C145.051 224.001 146.092 223.795 147.063 223.393C148.033 222.991 148.915 222.401 149.657 221.657C151.198 220.116 152.709 218.506 154.146 216.874C154.871 216.091 155.431 215.171 155.795 214.168C156.158 213.165 156.317 212.099 156.263 211.034C156.209 209.969 155.942 208.925 155.478 207.964C155.015 207.003 154.363 206.145 153.563 205.44C152.763 204.734 151.829 204.196 150.818 203.857C149.807 203.518 148.738 203.384 147.674 203.464C146.61 203.544 145.573 203.836 144.624 204.322C143.674 204.809 142.832 205.481 142.146 206.298C140.93 207.679 139.646 209.04 138.346 210.343C137.228 211.461 136.466 212.887 136.157 214.438C135.848 215.99 136.006 217.598 136.611 219.06C137.216 220.522 138.241 221.771 139.557 222.65C140.872 223.53 142.418 223.999 144 224V224Z" fill="black"/>
<path d="M161.839 198.117C162.774 198.597 163.794 198.888 164.841 198.974C165.888 199.059 166.942 198.938 167.942 198.616C168.942 198.295 169.869 197.779 170.67 197.099C171.471 196.419 172.13 195.589 172.61 194.654C175.022 189.953 177.073 185.076 178.744 180.064L179.589 177.53C179.933 176.53 180.076 175.472 180.009 174.417C179.942 173.362 179.666 172.331 179.198 171.383C178.73 170.435 178.079 169.589 177.282 168.895C176.485 168.2 175.558 167.67 174.555 167.336C173.552 167.002 172.493 166.869 171.439 166.947C170.384 167.024 169.356 167.31 168.413 167.787C167.469 168.265 166.63 168.924 165.943 169.728C165.256 170.532 164.736 171.464 164.411 172.47L163.565 175C162.151 179.24 160.417 183.366 158.376 187.343C157.896 188.278 157.604 189.298 157.518 190.345C157.433 191.393 157.554 192.447 157.875 193.447C158.197 194.448 158.713 195.375 159.393 196.176C160.073 196.978 160.904 197.637 161.839 198.117Z" fill="black"/>
<path d="M375.492 276.147C374.493 275.82 373.441 275.692 372.393 275.772C371.345 275.852 370.324 276.137 369.386 276.612C368.449 277.086 367.614 277.741 366.93 278.538C366.246 279.335 365.725 280.259 365.398 281.257C362.655 289.66 357.42 297.031 350.39 302.389L346.29 305.524C345.432 306.153 344.709 306.947 344.162 307.859C343.615 308.771 343.255 309.783 343.103 310.836C342.952 311.889 343.012 312.961 343.28 313.99C343.548 315.02 344.019 315.985 344.664 316.83C345.31 317.676 346.118 318.384 347.04 318.913C347.962 319.442 348.981 319.782 350.037 319.913C351.092 320.044 352.163 319.964 353.187 319.676C354.211 319.388 355.167 318.899 356 318.237L360.1 315.102C369.703 307.784 376.852 297.718 380.6 286.241C381.261 284.225 381.094 282.029 380.136 280.136C379.178 278.243 377.508 276.808 375.492 276.147Z" fill="black"/>
<path d="M328 64C330.122 64 332.157 63.1571 333.657 61.6569C335.157 60.1566 336 58.1217 336 56V32C336 29.8783 335.157 27.8434 333.657 26.3431C332.157 24.8429 330.122 24 328 24C325.878 24 323.843 24.8429 322.343 26.3431C320.843 27.8434 320 29.8783 320 32V56C320 58.1217 320.843 60.1566 322.343 61.6569C323.843 63.1571 325.878 64 328 64Z" fill="black"/>
<path d="M320 128C320 130.122 320.843 132.157 322.343 133.657C323.843 135.157 325.878 136 328 136C330.122 136 332.157 135.157 333.657 133.657C335.157 132.157 336 130.122 336 128V104C336 101.878 335.157 99.8434 333.657 98.3431C332.157 96.8429 330.122 96 328 96C325.878 96 323.843 96.8429 322.343 98.3431C320.843 99.8434 320 101.878 320 104V128Z" fill="black"/>
<path d="M304 63.9999C305.582 63.9998 307.129 63.5305 308.444 62.6513C309.76 61.7722 310.785 60.5228 311.39 59.061C311.996 57.5992 312.154 55.9907 311.845 54.4389C311.537 52.8871 310.775 51.4617 309.656 50.3429L299.715 40.3999C298.972 39.657 298.09 39.0676 297.119 38.6656C296.148 38.2635 295.108 38.0566 294.057 38.0566C291.935 38.0567 289.9 38.8998 288.399 40.4004C286.899 41.901 286.056 43.9362 286.056 46.0583C286.056 48.1803 286.899 50.2154 288.4 51.7159L298.342 61.6569C299.084 62.4012 299.966 62.9914 300.937 63.3935C301.908 63.7956 302.949 64.0017 304 63.9999V63.9999Z" fill="black"/>
<path d="M346.344 109.657L356.285 119.598C357.785 121.098 359.82 121.941 361.942 121.941C364.064 121.941 366.099 121.099 367.599 119.598C369.1 118.098 369.943 116.063 369.943 113.941C369.943 111.819 369.1 109.784 367.6 108.284L357.658 98.3428C356.918 97.5864 356.035 96.9842 355.061 96.5712C354.087 96.1581 353.041 95.9425 351.983 95.9366C350.924 95.9308 349.876 96.135 348.897 96.5372C347.918 96.9395 347.029 97.5319 346.281 98.2802C345.533 99.0284 344.941 99.9177 344.539 100.896C344.137 101.875 343.933 102.924 343.939 103.982C343.945 105.04 344.16 106.086 344.574 107.061C344.987 108.035 345.589 108.917 346.346 109.657H346.344Z" fill="black"/>
<path d="M272 80C272 82.1217 272.843 84.1566 274.343 85.6569C275.843 87.1571 277.878 88 280 88H304C306.122 88 308.157 87.1571 309.657 85.6569C311.157 84.1566 312 82.1217 312 80C312 77.8783 311.157 75.8434 309.657 74.3431C308.157 72.8429 306.122 72 304 72H280C277.878 72 275.843 72.8429 274.343 74.3431C272.843 75.8434 272 77.8783 272 80Z" fill="black"/>
<path d="M344 80C344 82.1217 344.843 84.1566 346.343 85.6569C347.843 87.1571 349.878 88 352 88H376C378.122 88 380.157 87.1571 381.657 85.6569C383.157 84.1566 384 82.1217 384 80C384 77.8783 383.157 75.8434 381.657 74.3431C380.157 72.8429 378.122 72 376 72H352C349.878 72 347.843 72.8429 346.343 74.3431C344.843 75.8434 344 77.8783 344 80Z" fill="black"/>
<path d="M298.344 98.3428L288.402 108.284C286.902 109.784 286.058 111.819 286.058 113.941C286.058 116.063 286.9 118.098 288.401 119.598C289.901 121.099 291.936 121.942 294.058 121.942C296.179 121.943 298.215 121.1 299.715 119.6L309.656 109.659C310.413 108.919 311.015 108.037 311.428 107.063C311.841 106.088 312.057 105.042 312.063 103.984C312.069 102.926 311.865 101.877 311.463 100.898C311.061 99.9196 310.469 99.0304 309.721 98.2821C308.973 97.5339 308.084 96.9414 307.105 96.5392C306.126 96.1369 305.078 95.9328 304.019 95.9386C302.961 95.9444 301.915 96.1601 300.941 96.5731C299.967 96.9861 299.084 97.5883 298.344 98.3448V98.3428Z" fill="black"/>
<path d="M356.285 40.3998L346.344 50.3408C345.587 51.0805 344.985 51.963 344.572 52.9371C344.159 53.9112 343.943 54.9575 343.937 56.0156C343.931 57.0737 344.135 58.1225 344.537 59.1012C344.939 60.08 345.531 60.9692 346.279 61.7175C347.027 62.4657 347.916 63.0581 348.895 63.4604C349.874 63.8627 350.922 64.0668 351.981 64.061C353.039 64.0552 354.085 63.8395 355.059 63.4265C356.033 63.0134 356.916 62.4113 357.656 61.6548L367.598 51.7138C368.348 50.9726 368.944 50.0904 369.353 49.1179C369.761 48.1454 369.972 47.1018 369.976 46.0471C369.979 44.9924 369.774 43.9476 369.371 42.9725C368.969 41.9975 368.378 41.1116 367.633 40.3659C366.887 39.6201 366.001 39.0291 365.026 38.6269C364.051 38.2248 363.006 38.0193 361.952 38.0225C360.897 38.0257 359.853 38.2373 358.881 38.6453C357.908 39.0533 357.026 39.6496 356.285 40.3998V40.3998Z" fill="black"/>
<path d="M328 88C332.418 88 336 84.4183 336 80C336 75.5817 332.418 72 328 72C323.582 72 320 75.5817 320 80C320 84.4183 323.582 88 328 88Z" fill="black"/>
<path d="M70.3272 176.847C70.6498 177.856 71.1697 178.791 71.8566 179.598C72.5436 180.404 73.3839 181.067 74.3288 181.546C75.2737 182.025 76.3044 182.312 77.361 182.389C78.4176 182.467 79.4792 182.334 80.484 181.998C81.4888 181.662 82.4168 181.13 83.2143 180.432C84.0117 179.735 84.6627 178.886 85.1294 177.935C85.596 176.984 85.8691 175.949 85.9328 174.892C85.9964 173.834 85.8494 172.774 85.5002 171.774L77.8902 149.012C77.563 148.008 77.0404 147.08 76.3526 146.279C75.6647 145.478 74.8252 144.821 73.8823 144.347C72.9395 143.872 71.9121 143.588 70.8592 143.512C69.8063 143.437 68.7488 143.57 67.7476 143.904C66.7465 144.239 65.8214 144.769 65.0259 145.463C64.2303 146.156 63.5799 147.001 63.1122 147.947C62.6445 148.894 62.3688 149.923 62.3008 150.977C62.2328 152.03 62.374 153.086 62.7162 154.085L70.3272 176.847Z" fill="black"/>
<path d="M39.0002 182.8L51.5802 189.076C53.4789 190.023 55.6761 190.177 57.6885 189.505C59.7008 188.832 61.3635 187.387 62.3107 185.489C63.2579 183.59 63.4121 181.393 62.7393 179.38C62.0665 177.368 60.6219 175.705 58.7232 174.758L46.1432 168.482C44.2445 167.535 42.0473 167.381 40.035 168.053C38.0226 168.726 36.3599 170.171 35.4127 172.07C34.4655 173.968 34.3113 176.165 34.9841 178.178C35.6569 180.19 37.1015 181.853 39.0002 182.8V182.8Z" fill="black"/>
<path d="M39.9998 220.293C40.8623 220.293 41.719 220.153 42.5368 219.879L65.2988 212.269C66.2952 211.936 67.2162 211.41 68.0094 210.721C68.8025 210.032 69.4521 209.194 69.9212 208.254C70.3903 207.314 70.6696 206.29 70.7432 205.242C70.8168 204.194 70.6833 203.142 70.3503 202.146C70.0173 201.149 69.4912 200.228 68.8022 199.435C68.1132 198.642 67.2748 197.992 66.3347 197.523C65.3947 197.054 64.3714 196.775 63.3234 196.701C62.2754 196.628 61.2232 196.761 60.2268 197.094L37.4638 204.7C35.6585 205.299 34.1257 206.522 33.1403 208.149C32.1549 209.775 31.7814 211.7 32.0867 213.577C32.392 215.455 33.3562 217.162 34.8064 218.393C36.2566 219.623 38.0978 220.297 39.9998 220.293V220.293Z" fill="black"/>
<path d="M73.9419 220.285C72.0434 219.338 69.8466 219.184 67.8346 219.857C65.8226 220.529 64.1601 221.974 63.2129 223.872L56.9369 236.452C56.4675 237.392 56.1879 238.415 56.1141 239.463C56.0402 240.511 56.1734 241.564 56.5062 242.56C56.839 243.557 57.3649 244.478 58.0537 245.271C58.7425 246.065 59.5809 246.715 60.5209 247.184C61.4609 247.653 62.4841 247.933 63.5322 248.007C64.5803 248.081 65.6326 247.947 66.6292 247.615C67.6257 247.282 68.547 246.756 69.3403 246.067C70.1336 245.378 70.7835 244.54 71.2529 243.6L77.5289 231.02C77.9987 230.08 78.2786 229.056 78.3525 228.007C78.4265 226.959 78.2931 225.906 77.96 224.909C77.6269 223.912 77.1005 222.991 76.4111 222.197C75.7216 221.404 74.8826 220.754 73.9419 220.285V220.285Z" fill="black"/>
<path d="M97.1 173.859C98.04 174.329 99.0634 174.609 100.112 174.683C101.16 174.757 102.213 174.624 103.21 174.291C104.206 173.957 105.128 173.431 105.921 172.741C106.714 172.051 107.363 171.212 107.831 170.271L114.106 157.691C115.048 155.793 115.198 153.599 114.524 151.59C113.85 149.581 112.407 147.921 110.51 146.976C108.614 146.03 106.42 145.875 104.41 146.545C102.4 147.215 100.737 148.656 99.788 150.55L93.513 163.13C92.5661 165.029 92.412 167.225 93.0847 169.237C93.7574 171.249 95.2017 172.912 97.1 173.859Z" fill="black"/>
<path d="M88.0599 204.659C89.5605 204.157 90.8786 203.222 91.8475 201.971C92.8164 200.72 93.3927 199.21 93.5034 197.631C93.614 196.053 93.2542 194.477 92.4693 193.103C91.6844 191.73 90.5098 190.619 89.0939 189.913C87.678 189.207 86.0845 188.936 84.5148 189.136C82.9452 189.335 81.4699 189.995 80.2756 191.033C79.0812 192.071 78.2215 193.44 77.805 194.966C77.3886 196.493 77.4341 198.108 77.9359 199.609C78.6088 201.621 80.0534 203.284 81.952 204.231C83.8506 205.178 86.0477 205.332 88.0599 204.659Z" fill="black"/>
<path d="M448 128C448 125.878 447.157 123.843 445.657 122.343C444.157 120.843 442.122 120 440 120C437.878 120 435.843 120.843 434.343 122.343C432.843 123.843 432 125.878 432 128V144C432 146.122 432.843 148.157 434.343 149.657C435.843 151.157 437.878 152 440 152C442.122 152 444.157 151.157 445.657 149.657C447.157 148.157 448 146.122 448 144V128Z" fill="black"/>
<path d="M440 200C442.122 200 444.157 199.157 445.657 197.657C447.157 196.157 448 194.122 448 192V176C448 173.878 447.157 171.843 445.657 170.343C444.157 168.843 442.122 168 440 168C437.878 168 435.843 168.843 434.343 170.343C432.843 171.843 432 173.878 432 176V192C432 194.122 432.843 196.157 434.343 197.657C435.843 199.157 437.878 200 440 200Z" fill="black"/>
<path d="M432 160C432 157.878 431.157 155.843 429.657 154.343C428.157 152.843 426.122 152 424 152H408C405.878 152 403.843 152.843 402.343 154.343C400.843 155.843 400 157.878 400 160C400 162.122 400.843 164.157 402.343 165.657C403.843 167.157 405.878 168 408 168H424C426.122 168 428.157 167.157 429.657 165.657C431.157 164.157 432 162.122 432 160Z" fill="black"/>
<path d="M456 168H472C474.122 168 476.157 167.157 477.657 165.657C479.157 164.157 480 162.122 480 160C480 157.878 479.157 155.843 477.657 154.343C476.157 152.843 474.122 152 472 152H456C453.878 152 451.843 152.843 450.343 154.343C448.843 155.843 448 157.878 448 160C448 162.122 448.843 164.157 450.343 165.657C451.843 167.157 453.878 168 456 168Z" fill="black"/>
</svg>
