<?xml version="1.0" encoding="utf-8"?>
<!-- Generator: Adobe Illustrator 23.0.1, SVG Export Plug-In . SVG Version: 6.00 Build 0)  -->
<svg version="1.1" id="Layer_1" xmlns="http://www.w3.org/2000/svg" xmlns:xlink="http://www.w3.org/1999/xlink" x="0px" y="0px"
	 width="15.75px" height="15.5px" viewBox="0 0 15.75 15.5" style="enable-background:new 0 0 15.75 15.5;" xml:space="preserve">
<style type="text/css">
	.st0{fill:#FEE565;}
	.st1{fill:#FDD62F;}
	.st2{fill:#1D1D1D;}
	.st3{fill:#F37E7F;}
</style>
<circle class="st0" cx="7.742517" cy="7.7521439" r="7.7490001"/>
<path class="st1" d="M1.3400269,8.4299927c0,2.3800049,0.9799805,4.5200195,2.5699463,6.0599976
	C1.5700073,13.1599731-0.0100098,10.6400146-0.0100098,7.75c0-4.2800293,3.4700317-7.75,7.75-7.75
	c0.3400269,0,0.6699829,0.0200195,0.9899902,0.0700073C4.5599976,0.5800171,1.3400269,4.1300049,1.3400269,8.4299927z"/>
<path class="st2" d="M9.5,9.3910007c0-0.6000004-0.8999996-1.2999992-2.2340002-1.375
	c-0.1218667-0.0085392-0.2312651,0.0743656-0.256,0.1940002C6.982511,8.3287086,7.0446062,8.4499416,7.1569996,8.4970016
	L7.6849995,8.722002c0.4060001,0.1720009,0.6499996,0.4220009,0.6499996,0.6720009s-0.2440004,0.5-0.6469998,0.6720009
	l-0.5310001,0.2250004c-0.1275778,0.0705872-0.1737781,0.2312317-0.1031914,0.3588085
	c0.0240178,0.0434093,0.0597816,0.079174,0.1031914,0.1031914l0.5279999,0.2250004
	c0.4059997,0.1720009,0.6500001,0.4220009,0.6500001,0.6720009s-0.2440004,0.5-0.6469998,0.6720009l-0.5310001,0.2250004
	c-0.1276007,0.052742-0.1882854,0.1989384-0.1355433,0.32654c0.039278,0.095026,0.1327348,0.1563129,0.2355433,0.1544609h0.0159998
	C8.6059999,12.9500008,9.5,12.2530003,9.5,11.6529999c0-0.4060001-0.4189997-0.8530006-1.1000004-1.125
	C9.0779991,10.2439995,9.5,9.796999,9.5,9.3910007z M11.6999998,6.7820005L12,7.0480003
	c0.1538248,0.1378508,0.390274,0.1249008,0.5281248-0.028924c0.0750914-0.0837936,0.1084681-0.1969423,0.0908756-0.3080759
	c-0.2535629-0.8109589-1.020031-1.3506451-1.8690004-1.316c-0.8491764-0.0353489-1.6160297,0.5046091-1.8689995,1.316
	C8.8487053,6.9150143,8.9879112,7.1065807,9.191925,7.138876C9.3030586,7.1564684,9.4162073,7.1230927,9.500001,7.0480003
	l0.3000002-0.2659998c0.568429-0.412343,1.3375711-0.412343,1.9060001,0H11.6999998z M4.25,6.2659998c0,0.5522852,0.4477153,1,1,1
	s1-0.4477148,1-1s-0.4477153-1-1-1S4.25,5.7137146,4.25,6.2659998z"/>
<path class="st3" d="M15.6590004,12.3279991C15.3872166,11.6803684,14.67764,11.3343487,14,11.5189991l-0.2620001,0.0690002
	l-0.0719995-0.2619991c-0.1794586-0.6790562-0.8342962-1.1200352-1.5310001-1.0310001
	c-0.7140636,0.109354-1.204277,0.7768669-1.0949221,1.4909306c0.0079079,0.0516338,0.0189009,0.1027489,0.0329218,0.1530685
	l0.7159996,2.5809994c0.0476437,0.1665535,0.2191753,0.2649517,0.3870001,0.2220001l2.5939999-0.6720009
	c0.6962919-0.1750965,1.1188049-0.8814964,0.9437084-1.5777874c-0.013957-0.0555058-0.0315657-0.1100273-0.0527086-0.1632118
	L15.6590004,12.3279991z"/>
</svg>
