<?xml version="1.0" encoding="utf-8"?>
<!-- Generator: Adobe Illustrator 26.0.2, SVG Export Plug-In . SVG Version: 6.00 Build 0)  -->
<svg version="1.1" id="Layer_3" xmlns="http://www.w3.org/2000/svg" xmlns:xlink="http://www.w3.org/1999/xlink" x="0px" y="0px"
	 viewBox="0 0 64 64" style="enable-background:new 0 0 64 64;" xml:space="preserve">
<g>
	<circle style="fill:#F9D18F;" cx="32" cy="32" r="25"/>
	<ellipse style="fill:#FBE3BC;" cx="34" cy="32" rx="23" ry="24.913"/>
	<path style="fill:#F9D18F;" d="M7,32c0-1.703,0.172-3.367,0.497-4.975C4.419,27.282,2,29.856,2,33c0,3.314,2.686,6,6,6h0.001
		C7.354,36.778,7,34.431,7,32z"/>
	<path style="fill:#F9D18F;" d="M56.503,27.025C56.828,28.633,57,30.297,57,32c0,2.431-0.354,4.778-1.001,7H56c3.314,0,6-2.686,6-6
		C62,29.856,59.581,27.282,56.503,27.025z"/>
	<circle style="fill:#CA354F;" cx="32.065" cy="18" r="3"/>
	<path style="fill:#D76895;" d="M41.626,13.603c-0.965-0.715-2.201-0.8-3.238-0.224l-4.178,2.527
		c0.528,0.541,0.856,1.278,0.856,2.094c0,0.885-0.39,1.672-1,2.221l4.322,2.4c1.037,0.576,2.273,0.491,3.238-0.224
		c0.899-0.666,1.439-1.786,1.439-2.987v-2.821C43.065,15.389,42.525,14.269,41.626,13.603z"/>
	<path style="fill:#DE5D7B;" d="M43.065,16.589v2.821c0,0.201-0.036,0.395-0.066,0.589H54c-0.78-1.423-1.696-2.762-2.728-4h-8.273
		C43.029,16.195,43.065,16.388,43.065,16.589z"/>
	<path style="fill:#E193B3;" d="M41.626,15.603c-0.965-0.715-2.201-0.8-3.238-0.224l-3.38,2.045
		c0.037,0.187,0.058,0.379,0.058,0.576c0,0.885-0.39,1.672-1,2.221l4.322,2.4c1.037,0.576,2.273,0.491,3.238-0.224
		c0.899-0.666,1.439-1.786,1.439-2.987v-0.821C43.065,17.389,42.525,16.269,41.626,15.603z"/>
	<ellipse style="fill:#DE5D7B;" cx="33.065" cy="18" rx="2" ry="2.816"/>
	<path style="fill:#D76895;" d="M29.065,18c0-0.815,0.328-1.553,0.856-2.094l-4.178-2.527c-1.037-0.576-2.273-0.491-3.238,0.224
		c-0.899,0.666-1.439,1.786-1.439,2.987v2.821c0,1.2,0.54,2.321,1.439,2.987c0.965,0.714,2.201,0.8,3.238,0.224l4.363-2.366
		C29.474,19.705,29.065,18.904,29.065,18z"/>
	<path style="fill:#CA354F;" d="M21.065,19.411v-2.821c0-0.201,0.036-0.395,0.066-0.589h-8.273c-1.032,1.238-1.948,2.577-2.728,4
		h11.001C21.102,19.805,21.065,19.612,21.065,19.411z"/>
	<path style="fill:#E193B3;" d="M22.505,22.397c0.965,0.714,2.201,0.8,3.238,0.224l4.363-2.366c-0.633-0.55-1.041-1.351-1.041-2.255
		c0-0.116,0.021-0.226,0.034-0.338l-3.356-2.283c-1.037-0.576-2.273-0.491-3.238,0.224c-0.899,0.666-1.439,1.786-1.439,2.987v0.821
		C21.065,20.611,21.605,21.731,22.505,22.397z"/>
	<path style="fill:#DE5D7B;" d="M21.131,16h-4.273c-1.032,1.238-1.948,2.577-2.728,4h7.001c-0.029-0.195-0.066-0.388-0.066-0.589
		v-2.821C21.065,16.388,21.102,16.195,21.131,16z"/>
	<path style="fill:#CA354F;" d="M42.999,20h2c0.029-0.195,0.066-0.388,0.066-0.589v-2.821c0-0.201-0.036-0.395-0.066-0.589h-2
		c0.029,0.195,0.066,0.388,0.066,0.589v2.821C43.065,19.612,43.029,19.805,42.999,20z"/>
	<g>
		<path d="M63,33c0-3.407-2.448-6.25-5.677-6.871C54.654,14.612,44.317,6,32,6S9.346,14.612,6.677,26.129C3.448,26.75,1,29.593,1,33
			c0,3.606,2.742,6.583,6.251,6.958C10.621,50.413,20.439,58,32,58s21.379-7.587,24.749-18.042C60.258,39.583,63,36.606,63,33z
			 M44,17h6.715c0.514,0.641,0.995,1.308,1.443,2H44V17z M48.923,15h-5.187c-0.3-0.882-0.844-1.656-1.581-2.201
			c-1.281-0.948-2.936-1.062-4.351-0.275l-3.57,2.16C33.596,14.252,32.827,14,32,14c-0.827,0-1.596,0.252-2.234,0.684l-3.603-2.179
			c-1.381-0.77-3.037-0.655-4.319,0.294c-0.736,0.545-1.28,1.319-1.58,2.201h-5.187C19.419,10.677,25.403,8,32,8
			S44.581,10.677,48.923,15z M28.506,19.907l-3.313,1.84c-0.699,0.387-1.505,0.329-2.158-0.153C22.387,21.114,22,20.298,22,19.41
			v-2.82c0-0.888,0.387-1.704,1.034-2.184c0.653-0.484,1.46-0.54,2.126-0.172l3.278,1.983C28.167,16.757,28,17.356,28,18
			C28,18.694,28.194,19.338,28.506,19.907z M30,18c0-1.103,0.897-2,2-2s2,0.897,2,2s-0.897,2-2,2S30,19.103,30,18z M35.562,16.217
			l3.246-1.964c0.699-0.388,1.505-0.33,2.158,0.153C41.613,14.886,42,15.702,42,16.59v2.82c0,0.888-0.387,1.704-1.034,2.184
			c-0.653,0.483-1.459,0.54-2.158,0.153l-3.313-1.84C35.806,19.338,36,18.694,36,18C36,17.356,35.833,16.757,35.562,16.217z M20,19
			h-8.158c0.448-0.692,0.929-1.359,1.443-2H20V19z M3,33c0-2.144,1.364-3.962,3.264-4.671C6.094,29.529,6,30.753,6,32
			c0,1.992,0.233,3.93,0.659,5.794C4.556,37.204,3,35.289,3,33z M32,56C18.767,56,8,45.233,8,32c0-3.963,0.972-7.702,2.68-11h9.584
			c0.3,0.882,0.844,1.656,1.581,2.201c0.717,0.53,1.55,0.8,2.387,0.8c0.66,0,1.322-0.167,1.931-0.506l3.765-2.091
			C30.534,21.775,31.239,22,32,22s1.466-0.225,2.072-0.596l3.765,2.091c0.609,0.339,1.271,0.506,1.931,0.506
			c0.837,0,1.67-0.27,2.388-0.8c0.736-0.545,1.28-1.319,1.58-2.201h9.584C55.028,24.298,56,28.037,56,32C56,45.233,45.233,56,32,56z
			 M57.341,37.794C57.767,35.93,58,33.992,58,32c0-1.247-0.094-2.471-0.264-3.671C59.636,29.038,61,30.856,61,33
			C61,35.289,59.444,37.204,57.341,37.794z"/>
		<path d="M25.447,31.105l-10-5l-0.895,1.789L20.764,31h-0.159c-2.593,0-4.999,1.288-6.438,3.445l1.664,1.109
			c1.066-1.6,2.851-2.555,4.773-2.555H25c0.464,0,0.867-0.319,0.973-0.771S25.862,31.312,25.447,31.105z"/>
		<path d="M43.395,31h-0.159l6.211-3.105l-0.895-1.789l-10,5c-0.415,0.207-0.632,0.673-0.526,1.124S38.536,33,39,33h4.395
			c1.922,0,3.707,0.955,4.773,2.555l1.664-1.109C48.394,32.288,45.987,31,43.395,31z"/>
		<path d="M36,43c0-2.206-1.794-4-4-4s-4,1.794-4,4h2c0-1.103,0.897-2,2-2s2,0.897,2,2s-0.897,2-2,2v2c1.103,0,2,0.897,2,2
			s-0.897,2-2,2s-2-0.897-2-2h-2c0,2.206,1.794,4,4,4s4-1.794,4-4c0-1.201-0.542-2.266-1.382-3C35.458,45.266,36,44.201,36,43z"/>
	</g>
</g>
</svg>
