<?xml version="1.0" encoding="utf-8"?>
<!-- Generator: Adobe Illustrator 26.0.2, SVG Export Plug-In . SVG Version: 6.00 Build 0)  -->
<svg version="1.1" id="Layer_3" xmlns="http://www.w3.org/2000/svg" xmlns:xlink="http://www.w3.org/1999/xlink" x="0px" y="0px"
	 viewBox="0 0 64 64" style="enable-background:new 0 0 64 64;" xml:space="preserve">
<g>
	<path style="fill:#F8E0B5;" d="M16,28h-2c-2.209,0-4,1.791-4,4c0,2.209,1.791,4,4,4h2.138C16.056,35.343,16,34.679,16,34V28z"/>
	<path style="fill:#F8E0B5;" d="M50,28h-2v6c0,0.679-0.056,1.343-0.138,2H50c2.209,0,4-1.791,4-4C54,29.791,52.209,28,50,28z"/>
	<path style="fill:#F3C14F;" d="M50,24H14c-1.105,0-2-0.895-2-2v-4h40v4C52,23.105,51.105,24,50,24z"/>
	<path style="fill:#F8D859;" d="M47,18H12v4h31C45.209,22,47,20.209,47,18z"/>
	<path style="fill:#F8E0B5;" d="M16,24v10c0,8.837,7.163,16,16,16s16-7.163,16-16V24H16z"/>
	<path style="fill:#F9EBD2;" d="M16,34v-5h-1.465c-1.657,0-3,1.343-3,3c0,1.657,1.343,3,3,3h1.516C16.03,34.668,16,34.338,16,34z"/>
	<path style="fill:#F9EBD2;" d="M49.303,29H48v5c0,0.133-0.017,0.261-0.02,0.393h1.323c1.489,0,2.697-1.207,2.697-2.697
		S50.793,29,49.303,29z"/>
	<path style="fill:#F9EBD2;" d="M54.117,54.823L40,52v-4.158C37.645,49.206,34.918,50,32,50s-5.645-0.794-8-2.158V52L9.883,54.823
		C6.462,55.508,4,58.511,4,62h56C60,58.511,57.538,55.508,54.117,54.823z"/>
	<path style="fill:#F9EBD2;" d="M18,26v8.75c0,7.732,6.268,14,14,14s14-6.268,14-14V26H18z"/>
	<path style="fill:#2B66BA;" d="M4,62h56c0-3.489-2.462-6.492-5.883-7.177L40,52l-8,5l-8-5L9.883,54.823C6.462,55.508,4,58.511,4,62
		z"/>
	<path style="fill:#3477CC;" d="M10,62h44c0-2.741-1.935-5.101-4.623-5.639l-11.092-2.218L32,58.071l-6.286-3.929l-11.092,2.218
		C11.935,56.899,10,59.259,10,62z"/>
	<path style="fill:#606060;" d="M51,12c0-2.209-1.791-4-4-4c0-2.209-1.791-4-4-4c-0.498,0-0.969,0.102-1.409,0.268
		C40.944,2.93,39.586,2,38,2c-1.202,0-2.267,0.541-3,1.38C34.267,2.541,33.202,2,32,2s-2.267,0.541-3,1.38
		C28.267,2.541,27.202,2,26,2c-1.586,0-2.944,0.93-3.591,2.268C21.969,4.102,21.498,4,21,4c-2.209,0-4,1.791-4,4
		c-2.209,0-4,1.791-4,4c0,0.951,0.346,1.813,0.901,2.5C13.346,15.187,13,16.049,13,17c0,0.345,0.044,0.68,0.126,1h37.748
		C50.956,17.68,51,17.345,51,17c0-0.951-0.346-1.813-0.901-2.5C50.654,13.813,51,12.951,51,12z"/>
	<path style="fill:#808080;" d="M48,13.125c0-1.795-1.455-3.25-3.25-3.25c0-1.795-1.455-3.25-3.25-3.25
		c-0.405,0-0.788,0.083-1.145,0.218C39.829,5.756,38.726,5,37.437,5C36.461,5,35.596,5.439,35,6.121C34.404,5.439,33.539,5,32.562,5
		c-0.976,0-1.842,0.439-2.437,1.121C29.529,5.439,28.664,5,27.688,5c-1.289,0-2.392,0.756-2.918,1.843
		c-0.357-0.135-0.74-0.218-1.145-0.218c-1.795,0-3.25,1.455-3.25,3.25c-1.795,0-3.25,1.455-3.25,3.25
		c0,0.773,0.281,1.473,0.732,2.031c-0.451,0.558-0.732,1.258-0.732,2.031c0,0.281,0.036,0.553,0.102,0.812h30.67
		C47.964,17.74,48,17.468,48,17.188c0-0.773-0.281-1.473-0.732-2.031C47.719,14.598,48,13.898,48,13.125z"/>
	<polygon style="fill:#F8D859;" points="20,18 14,24 24,24 30,18 	"/>
	<polygon style="fill:#FDEA60;" points="26,22 30,18 20,18 16,22 	"/>
	<polygon style="fill:#F8D859;" points="40,18 34,24 44,24 50,18 	"/>
	<path style="fill:#FFFFFF;" d="M32,45L32,45c-3.314,0-6-2.686-6-6v0h12v0C38,42.314,35.314,45,32,45z"/>
	<path style="fill:#D4483F;" d="M32,42c-1.105,0-2,0.895-2,2v0.651C30.626,44.873,31.298,45,32,45s1.374-0.127,2-0.349V44
		C34,42.895,33.105,42,32,42z"/>
	<path style="fill:#3E89DE;" d="M4.137,17.872L4.137,17.872c0.249,0.817,0.819,1.481,1.586,1.846l0.162,0.077
		c0.847,0.403,1.893,0.201,2.595-0.501l0,0c0.618-0.618,0.856-1.511,0.613-2.306l-0.025-0.082c-0.525-1.722-0.01-3.656,1.329-4.995
		l0,0l-3.025,0.846c-1.628,0.455-2.908,1.794-3.287,3.437l0,0C3.956,16.757,3.974,17.335,4.137,17.872z"/>
	<path style="fill:#5BA5EF;" d="M5.526,16.356L5.526,16.356c0.098,0.323,0.324,0.585,0.627,0.729l0.064,0.03
		c0.335,0.159,0.748,0.079,1.025-0.198l0,0c0.244-0.244,0.338-0.597,0.242-0.911l-0.01-0.032C7.268,15.293,7.471,14.529,8,14l0,0
		l-1.195,0.334c-0.643,0.18-1.149,0.709-1.299,1.358l0,0C5.455,15.915,5.462,16.144,5.526,16.356z"/>
	<path style="fill:#4596EC;" d="M2.358,3.924L2.358,3.924C1.956,4.678,1.89,5.551,2.174,6.35l0.06,0.169C2.548,7.404,3.43,8,4.424,8
		h0c0.874,0,1.673-0.463,2.064-1.197l0.04-0.075C7.375,5.139,9.106,4.135,11,4.135h0L8.263,2.594
		C6.789,1.765,4.938,1.806,3.509,2.701l0,0C3.018,3.007,2.621,3.429,2.358,3.924z"/>
	<path style="fill:#3E89DE;" d="M2.358,3.924L2.358,3.924C1.956,4.678,1.89,5.551,2.174,6.35l0.06,0.169C2.548,7.404,3.43,8,4.424,8
		h0c0.874,0,1.673-0.463,2.064-1.197l0.04-0.075C7.375,5.139,9.106,4.135,11,4.135h0L8.263,2.594
		C6.789,1.765,4.938,1.806,3.509,2.701l0,0C3.018,3.007,2.621,3.429,2.358,3.924z"/>
	<path style="fill:#5BA5EF;" d="M3.179,3.962L3.179,3.962C2.978,4.339,2.945,4.775,3.087,5.175l0.03,0.085
		C3.274,5.702,3.715,6,4.212,6h0c0.437,0,0.837-0.232,1.032-0.598l0.02-0.038C5.688,4.569,6.553,4.068,7.5,4.068h0l-1.369-0.77
		C5.395,2.883,4.469,2.903,3.754,3.35l0,0C3.509,3.504,3.311,3.715,3.179,3.962z"/>
	<path style="fill:#3E89DE;" d="M59.863,17.872L59.863,17.872c-0.249,0.817-0.819,1.481-1.586,1.846l-0.162,0.077
		c-0.847,0.403-1.893,0.201-2.595-0.501l0,0c-0.618-0.618-0.856-1.511-0.613-2.306l0.025-0.082c0.525-1.722,0.01-3.656-1.329-4.995
		l0,0l3.025,0.846c1.628,0.455,2.908,1.794,3.287,3.437v0C60.044,16.757,60.026,17.335,59.863,17.872z"/>
	<path style="fill:#5BA5EF;" d="M58.474,16.356L58.474,16.356c-0.098,0.323-0.324,0.585-0.627,0.729l-0.064,0.03
		c-0.335,0.159-0.748,0.079-1.026-0.198v0c-0.244-0.244-0.338-0.597-0.242-0.911l0.01-0.032C56.732,15.293,56.529,14.529,56,14v0
		l1.195,0.334c0.643,0.18,1.149,0.709,1.299,1.358v0C58.545,15.915,58.538,16.144,58.474,16.356z"/>
	<path style="fill:#4596EC;" d="M61.642,3.924L61.642,3.924c0.402,0.754,0.468,1.627,0.184,2.426l-0.06,0.169
		C61.452,7.404,60.57,8,59.576,8h0c-0.874,0-1.673-0.463-2.064-1.197l-0.04-0.075C56.625,5.139,54.894,4.135,53,4.135h0l2.737-1.541
		c1.473-0.829,3.324-0.788,4.754,0.106l0,0C60.982,3.007,61.379,3.429,61.642,3.924z"/>
	<path style="fill:#3E89DE;" d="M61.642,3.924L61.642,3.924c0.402,0.754,0.468,1.627,0.184,2.426l-0.06,0.169
		C61.452,7.404,60.57,8,59.576,8h0c-0.874,0-1.673-0.463-2.064-1.197l-0.04-0.075C56.625,5.139,54.894,4.135,53,4.135h0l2.737-1.541
		c1.473-0.829,3.324-0.788,4.754,0.106l0,0C60.982,3.007,61.379,3.429,61.642,3.924z"/>
	<path style="fill:#5BA5EF;" d="M60.821,3.962L60.821,3.962c0.201,0.377,0.234,0.813,0.092,1.213l-0.03,0.085
		C60.726,5.702,60.285,6,59.788,6h0c-0.437,0-0.837-0.232-1.032-0.598l-0.02-0.038c-0.423-0.794-1.289-1.296-2.236-1.296h0
		l1.369-0.77c0.737-0.415,1.662-0.394,2.377,0.053l0,0C60.491,3.504,60.689,3.715,60.821,3.962z"/>
	<path style="fill:#FDEA60;" d="M43,22c2.209,0,4-1.791,4-4h-7l-4,4H43z"/>
	<g>
		<path d="M54.312,53.843L41,51.181v-2.785c3.985-2.501,6.859-6.597,7.719-11.396H50c2.757,0,5-2.243,5-5s-2.243-5-5-5h-1v-2h1
			c1.654,0,3-1.346,3-3v-4c0-0.552-0.447-1-1-1c0-0.886-0.235-1.737-0.686-2.5C51.765,13.737,52,12.886,52,12
			c0-2.444-1.763-4.484-4.084-4.916C47.484,4.763,45.444,3,43,3c-0.313,0-0.629,0.032-0.943,0.096C41.128,1.786,39.638,1,38,1
			c-1.086,0-2.138,0.363-3,1.018c-1.725-1.311-4.275-1.311-6,0C28.138,1.363,27.086,1,26,1c-1.638,0-3.128,0.786-4.057,2.096
			C21.629,3.032,21.313,3,21,3c-2.444,0-4.484,1.763-4.916,4.084C13.763,7.516,12,9.556,12,12c0,0.886,0.235,1.737,0.686,2.5
			C12.235,15.263,12,16.114,12,17c-0.553,0-1,0.448-1,1v4c0,1.654,1.346,3,3,3h1v2h-1c-2.757,0-5,2.243-5,5s2.243,5,5,5h1.281
			c0.859,4.798,3.734,8.895,7.719,11.396v2.785L9.687,53.843C5.812,54.618,3,58.049,3,62c0,0.553,0.447,1,1,1h56
			c0.553,0,1-0.447,1-1C61,58.049,58.187,54.618,54.312,53.843z M50,29c1.654,0,3,1.346,3,3s-1.346,3-3,3h-1.051
			C48.969,34.667,49,34.338,49,34v-5H50z M51,22c0,0.551-0.448,1-1,1h-3.586l4-4H51V22z M16.414,23l4-4h7.172l-4,4H16.414z
			 M30.414,19h7.172l-4,4h-7.172L30.414,19z M40.414,19h7.172l-4,4h-7.172L40.414,19z M14.679,13.872C14.234,13.322,14,12.675,14,12
			c0-1.654,1.346-3,3-3c0.553,0,1-0.448,1-1c0-1.997,1.977-3.585,4.055-2.796c0.482,0.184,1.03-0.033,1.255-0.5
			C23.817,3.653,24.848,3,26,3c0.864,0,1.662,0.369,2.247,1.038c0.381,0.435,1.125,0.435,1.506,0c1.17-1.338,3.324-1.338,4.494,0
			c0.381,0.435,1.125,0.435,1.506,0C36.338,3.369,37.136,3,38,3c1.152,0,2.183,0.653,2.69,1.704c0.225,0.466,0.772,0.683,1.255,0.5
			C44.021,4.415,46,6.003,46,8c0,0.552,0.447,1,1,1c1.654,0,3,1.346,3,3c0,0.675-0.234,1.322-0.679,1.872
			c-0.296,0.367-0.296,0.89,0,1.257C49.766,15.678,50,16.325,50,17H14c0-0.675,0.234-1.322,0.679-1.872
			C14.975,14.762,14.975,14.238,14.679,13.872z M13,19h4.586l-3.93,3.93C13.275,22.789,13,22.429,13,22V19z M14,35
			c-1.654,0-3-1.346-3-3s1.346-3,3-3h1v5c0,0.338,0.031,0.667,0.051,1H14z M17,34v-9h30v9c0,8.271-6.729,15-15,15S17,42.271,17,34z
			 M32,51c2.497,0,4.862-0.555,7-1.526v1.972l-7,4.374l-7-4.374v-1.972C27.138,50.445,29.503,51,32,51z M5.08,61
			c0.413-2.564,2.389-4.674,5-5.196l13.727-2.745l7.663,4.789C31.632,57.949,31.816,58,32,58s0.368-0.051,0.53-0.152l7.663-4.789
			l13.727,2.745c2.611,0.522,4.587,2.632,5,5.196H5.08z"/>
		<path d="M39,39c0-0.553-0.447-1-1-1H26c-0.553,0-1,0.447-1,1c0,3.859,3.141,7,7,7S39,42.859,39,39z M31.021,43.896
			C31.075,43.396,31.485,43,32,43s0.925,0.396,0.979,0.896C32.661,43.96,32.336,44,32,44S31.339,43.96,31.021,43.896z M27.101,40
			h9.799c-0.261,1.279-1.021,2.367-2.056,3.089C34.455,41.882,33.335,41,32,41s-2.455,0.882-2.843,2.089
			C28.122,42.367,27.361,41.279,27.101,40z"/>
		<path d="M36.196,33.98l1.465-0.293c2.02-0.402,4.072,0.004,5.784,1.145l1.109-1.664c-1.703-1.135-3.656-1.695-5.681-1.628
			l3.833-3.833l-1.414-1.414l-6,6c-0.312,0.312-0.383,0.79-0.175,1.179S35.763,34.074,36.196,33.98z"/>
		<path d="M27.804,33.98c0.434,0.093,0.87-0.12,1.078-0.509s0.137-0.867-0.175-1.179l-6-6l-1.414,1.414l3.833,3.833
			c-2.024-0.069-3.978,0.493-5.681,1.628l1.109,1.664c1.712-1.141,3.765-1.547,5.784-1.145L27.804,33.98z"/>
		<path d="M42,14h2c0-2.757-2.243-5-5-5v2C40.654,11,42,12.346,42,14z"/>
		<path d="M26,9V7c-2.757,0-5,2.243-5,5h2C23,10.346,24.346,9,26,9z"/>
		<path d="M62.525,3.454C62.525,3.454,62.525,3.454,62.525,3.454c-0.346-0.648-0.865-1.202-1.504-1.601
			c-1.728-1.081-3.996-1.133-5.774-0.13L52.51,3.264c-0.396,0.223-0.593,0.686-0.478,1.125c0.116,0.44,0.513,0.747,0.968,0.747
			c1.513,0,2.922,0.81,3.63,2.139C57.198,8.339,58.327,9,59.576,9c1.418,0,2.677-0.862,3.131-2.144l0.062-0.171
			C63.145,5.627,63.056,4.45,62.525,3.454z M60.885,6.014l-0.062,0.172C60.65,6.673,60.149,7,59.576,7
			c-0.502,0-0.966-0.262-1.222-0.743c-0.59-1.106-1.518-1.971-2.631-2.508l0.504-0.284c1.15-0.647,2.617-0.615,3.733,0.083
			c0.342,0.214,0.618,0.506,0.799,0.846C61.03,4.903,61.074,5.479,60.885,6.014z"/>
		<path d="M54.812,20c0.653,0.653,1.519,1,2.382,1c0.462,0,0.923-0.099,1.351-0.303l0.161-0.077
			c1.015-0.482,1.785-1.377,2.114-2.458v0c0.213-0.703,0.237-1.461,0.068-2.194c-0.458-1.986-2.025-3.625-3.992-4.175l-3.024-0.846
			c-0.438-0.123-0.902,0.066-1.133,0.458c-0.229,0.393-0.165,0.891,0.156,1.212c1.069,1.069,1.493,2.638,1.054,4.079
			C53.598,17.85,53.929,19.116,54.812,20z M56.357,13.719c1.272,0.356,2.286,1.416,2.582,2.699c0.091,0.393,0.079,0.795-0.033,1.163
			c-0.168,0.551-0.544,0.989-1.059,1.234l-0.162,0.077c-0.467,0.221-1.054,0.1-1.459-0.306c-0.354-0.355-0.497-0.868-0.338-1.389
			c0.364-1.199,0.32-2.467-0.088-3.634L56.357,13.719z"/>
		<path d="M11.261,11.405c-0.229-0.393-0.692-0.581-1.133-0.458l-3.024,0.846c-1.967,0.55-3.534,2.189-3.992,4.175
			c-0.169,0.733-0.145,1.492,0.068,2.194v0c0.329,1.08,1.1,1.976,2.113,2.457l0.162,0.077C5.883,20.901,6.344,21,6.806,21
			c0.863,0,1.729-0.347,2.382-1c0.884-0.884,1.215-2.15,0.838-3.386c-0.414-1.358,0.01-2.927,1.079-3.997
			C11.426,12.296,11.49,11.798,11.261,11.405z M8.137,17.279c0.134,0.439-0.009,0.952-0.363,1.307
			c-0.405,0.406-0.993,0.527-1.459,0.306l-0.163-0.078c-0.514-0.245-0.89-0.683-1.058-1.233c-0.112-0.368-0.124-0.771-0.033-1.163
			c0.296-1.283,1.31-2.343,2.582-2.699l0.562-0.157C7.796,14.739,7.757,16.03,8.137,17.279z"/>
		<path d="M7.411,7.198C8.078,5.945,9.487,5.135,11,5.135c0.455,0,0.852-0.307,0.968-0.747c0.115-0.439-0.081-0.902-0.478-1.125
			L8.753,1.723c-1.779-1.001-4.046-0.951-5.774,0.13C2.34,2.252,1.82,2.806,1.475,3.454c0,0,0,0,0,0
			C0.944,4.45,0.855,5.627,1.232,6.687l0.06,0.167C1.747,8.138,3.006,9,4.424,9C5.673,9,6.802,8.339,7.411,7.198z M3.176,6.183
			l-0.06-0.168C2.926,5.479,2.97,4.903,3.24,4.394c0.181-0.339,0.457-0.632,0.799-0.846c1.117-0.698,2.584-0.73,3.733-0.083
			L8.28,3.752C7.159,4.296,6.22,5.181,5.606,6.332C5.39,6.738,4.926,7,4.424,7C3.851,7,3.35,6.673,3.176,6.183z"/>
	</g>
</g>
</svg>
