<?xml version="1.0" encoding="UTF-8" standalone="no"?> <svg width="512" height="512" viewBox="0 0 512 512" fill="none" xmlns="http://www.w3.org/2000/svg">
<path d="M400.25 15.75V399.75H132.25C129.623 399.749 127.022 400.266 124.595 401.271C122.169 402.276 119.963 403.749 118.106 405.606C116.249 407.463 114.776 409.669 113.771 412.095C112.766 414.522 112.249 417.123 112.25 419.75V35.75C112.249 33.1233 112.766 30.5223 113.771 28.0954C114.776 25.6685 116.249 23.4634 118.106 21.6061C119.963 19.7488 122.169 18.2756 124.595 17.2708C127.022 16.266 129.623 15.7492 132.25 15.75H400.25Z" fill="#57565C"/>
<path d="M232.25 111.75H328.25V187.75C328.25 193.054 326.143 198.141 322.392 201.892C318.641 205.643 313.554 207.75 308.25 207.75H252.25C246.946 207.75 241.859 205.643 238.108 201.892C234.357 198.141 232.25 193.054 232.25 187.75V111.75Z" fill="#FF9811"/>
<path d="M296.25 207.75H264.25V255.75H296.25V207.75Z" fill="#FFDA44"/>
<path d="M328.25 279.75H232.25L240.25 255.75H320.25L328.25 279.75Z" fill="#FF9811"/>
<path d="M328.25 127.75H360.25V155.75C360.25 161.054 358.143 166.141 354.392 169.892C350.641 173.643 345.554 175.75 340.25 175.75H328.25V127.75Z" fill="#FFDA44"/>
<path d="M232.25 175.75H220.25C214.946 175.75 209.859 173.643 206.108 169.892C202.357 166.141 200.25 161.054 200.25 155.75V127.75H232.25V175.75Z" fill="#FFDA44"/>
<path d="M384.25 399.75V463.75H132.25C129.623 463.751 127.022 463.234 124.595 462.229C122.169 461.224 119.963 459.751 118.106 457.894C116.249 456.037 114.776 453.831 113.771 451.405C112.766 448.978 112.249 446.377 112.25 443.75V419.75C112.249 417.123 112.766 414.522 113.771 412.095C114.776 409.669 116.249 407.463 118.106 405.606C119.963 403.749 122.169 402.276 124.595 401.271C127.022 400.266 129.623 399.749 132.25 399.75H384.25Z" fill="#C6C5CA"/>
<path d="M344.25 495.75L320.25 479.75L296.25 495.75V431.75H344.25V495.75Z" fill="#FFDA44"/>
<path d="M400 8H132C124.576 8.00821 117.459 10.9608 112.21 16.2101C106.961 21.4593 104.008 28.5765 104 36V444C104.008 451.424 106.961 458.541 112.21 463.79C117.459 469.039 124.576 471.992 132 472H288V496C288.002 497.447 288.396 498.867 289.141 500.109C289.886 501.35 290.953 502.366 292.229 503.049C293.505 503.732 294.942 504.057 296.388 503.988C297.834 503.92 299.234 503.461 300.44 502.66L320 489.61L339.56 502.66C340.876 503.534 342.42 504 344 504C346.121 503.996 348.153 503.152 349.652 501.652C351.152 500.153 351.996 498.121 352 496V472H384C386.122 472 388.157 471.157 389.657 469.657C391.157 468.157 392 466.122 392 464V408H400C402.122 408 404.157 407.157 405.657 405.657C407.157 404.157 408 402.122 408 400V16C408 13.8783 407.157 11.8434 405.657 10.3431C404.157 8.84285 402.122 8 400 8ZM336 481.05L324.44 473.34C323.124 472.466 321.58 472 320 472C318.42 472 316.876 472.466 315.56 473.34L304 481.05V440H336V481.05ZM376 456H352V432C352 429.878 351.157 427.843 349.657 426.343C348.157 424.843 346.122 424 344 424H296C293.878 424 291.843 424.843 290.343 426.343C288.843 427.843 288 429.878 288 432V456H132C128.818 455.997 125.768 454.732 123.518 452.482C121.268 450.232 120.003 447.182 120 444V420C120.003 416.818 121.268 413.768 123.518 411.518C125.768 409.268 128.818 408.003 132 408H376V456ZM392 392H132C127.848 391.994 123.747 392.92 120 394.71V36C120.003 32.8182 121.268 29.7675 123.518 27.5176C125.768 25.2678 128.818 24.0026 132 24H392V392Z" fill="black"/>
<path d="M360 120H336V112C336 109.878 335.157 107.843 333.657 106.343C332.157 104.843 330.122 104 328 104H232C229.878 104 227.843 104.843 226.343 106.343C224.843 107.843 224 109.878 224 112V120H200C197.878 120 195.843 120.843 194.343 122.343C192.843 123.843 192 125.878 192 128V156C192.008 163.424 194.961 170.541 200.21 175.79C205.459 181.039 212.576 183.992 220 184H224V188C224.008 195.424 226.961 202.541 232.21 207.79C237.459 213.039 244.576 215.992 252 216H256V248H240C238.321 248 236.684 248.528 235.322 249.51C233.96 250.492 232.941 251.877 232.41 253.47L224.41 277.47C224.009 278.673 223.9 279.953 224.091 281.206C224.282 282.46 224.768 283.649 225.51 284.678C226.251 285.706 227.226 286.544 228.354 287.121C229.483 287.699 230.732 288 232 288H328C329.268 288 330.517 287.699 331.646 287.121C332.774 286.544 333.749 285.706 334.49 284.678C335.232 283.649 335.718 282.46 335.909 281.206C336.1 279.953 335.991 278.673 335.59 277.47L327.59 253.47C327.059 251.877 326.04 250.492 324.678 249.51C323.316 248.528 321.679 248 320 248H304V216H308C315.424 215.992 322.541 213.039 327.79 207.79C333.039 202.541 335.992 195.424 336 188V184H340C347.424 183.992 354.541 181.039 359.79 175.79C365.039 170.541 367.992 163.424 368 156V128C368 125.878 367.157 123.843 365.657 122.343C364.157 120.843 362.122 120 360 120ZM224 168H220C216.818 167.997 213.768 166.732 211.518 164.482C209.268 162.232 208.003 159.182 208 156V136H224V168ZM314.23 264L316.9 272H243.1L245.77 264H314.23ZM272 248V216H288V248H272ZM320 188C319.997 191.182 318.732 194.232 316.482 196.482C314.232 198.732 311.182 199.997 308 200H252C248.818 199.997 245.768 198.732 243.518 196.482C241.268 194.232 240.003 191.182 240 188V120H320V188ZM352 156C351.997 159.182 350.732 162.232 348.482 164.482C346.232 166.732 343.182 167.997 340 168H336V136H352V156Z" fill="black"/>
<path d="M160 352C162.122 352 164.157 351.157 165.657 349.657C167.157 348.157 168 346.122 168 344V40C168 37.8783 167.157 35.8434 165.657 34.3431C164.157 32.8429 162.122 32 160 32C157.878 32 155.843 32.8429 154.343 34.3431C152.843 35.8434 152 37.8783 152 40V344C152 346.122 152.843 348.157 154.343 349.657C155.843 351.157 157.878 352 160 352Z" fill="black"/>
<path d="M160 384C162.122 384 164.157 383.157 165.657 381.657C167.157 380.157 168 378.122 168 376V368C168 365.878 167.157 363.843 165.657 362.343C164.157 360.843 162.122 360 160 360C157.878 360 155.843 360.843 154.343 362.343C152.843 363.843 152 365.878 152 368V376C152 378.122 152.843 380.157 154.343 381.657C155.843 383.157 157.878 384 160 384Z" fill="black"/>
</svg>
