<?xml version="1.0" encoding="UTF-8" standalone="no"?> <svg width="48" height="48" viewBox="0 0 48 48" fill="none" xmlns="http://www.w3.org/2000/svg">
<path d="M9 21C10.1046 21 11 20.1046 11 19C11 17.8954 10.1046 17 9 17C7.89543 17 7 17.8954 7 19C7 20.1046 7.89543 21 9 21Z" fill="#EAEFF0"/>
<path d="M35 41C36.1046 41 37 40.1046 37 39C37 37.8954 36.1046 37 35 37C33.8954 37 33 37.8954 33 39C33 40.1046 33.8954 41 35 41Z" fill="#EAEFF0"/>
<path d="M32.4472 24.036L37.0002 20L28.0002 11L23.9642 15.553L5.45916 36.384C5.12073 36.7654 4.94073 37.2616 4.95597 37.7713C4.97121 38.2809 5.18054 38.7655 5.54116 39.126L8.87416 42.459C9.23476 42.8195 9.71943 43.0286 10.2291 43.0437C10.7387 43.0587 11.2349 42.8786 11.6162 42.54L32.4472 24.036Z" fill="#2D4A60"/>
<path d="M34 17L29.447 21.036L8.61602 39.54C8.23477 39.8786 7.73861 40.0587 7.22895 40.0437C6.71929 40.0286 6.23462 39.8195 5.87402 39.459L8.87402 42.459C9.23462 42.8195 9.71929 43.0286 10.2289 43.0437C10.7386 43.0587 11.2348 42.8786 11.616 42.54L32.447 24.04L37 20L34 17Z" fill="#263F52"/>
<path d="M32.4352 24.024C34.3995 24.2373 36.3815 23.8357 38.1079 22.8747C39.8343 21.9137 41.2199 20.4406 42.0735 18.6587C42.9272 16.8768 43.2069 14.8739 42.8739 12.9264C42.541 10.9788 41.6119 9.18254 40.2148 7.78542C38.8176 6.3883 37.0214 5.45918 35.0738 5.12624C33.1262 4.7933 31.1233 5.07296 29.3414 5.92663C27.5595 6.7803 26.0865 8.1659 25.1255 9.89228C24.1645 11.6187 23.7629 13.6007 23.9762 15.565L32.4352 24.024Z" fill="#8FA5A5"/>
<path d="M40.2052 7.80012C39.6984 7.29707 39.1369 6.8523 38.5312 6.47412C39.4878 7.99042 39.9973 9.74587 40.0009 11.5387C40.0046 13.3316 39.5024 15.0891 38.5519 16.6093C37.6015 18.1295 36.2414 19.3507 34.628 20.1326C33.0145 20.9144 31.2133 21.2252 29.4312 21.0291L32.4312 24.0291C34.3949 24.2441 36.377 23.8439 38.1034 22.8838C39.8299 21.9237 41.2156 20.451 42.0691 18.6694C42.9225 16.8878 43.2015 14.8851 42.8677 12.938C42.5338 10.9909 41.6034 9.19562 40.2052 7.80012V7.80012Z" fill="#7B8C8C"/>
<path d="M33.5002 25.083C34.8779 25.0831 36.242 24.8108 37.514 24.2817C38.7861 23.7526 39.941 22.9771 40.9122 22C42.8542 20.0152 43.935 17.3445 43.9199 14.5677C43.9048 11.7909 42.795 9.13216 40.8315 7.16864C38.868 5.20511 36.2092 4.09533 33.4324 4.08023C30.6556 4.06513 27.9849 5.14593 26.0002 7.08798C24.9439 8.14146 24.1256 9.40908 23.6005 10.8055C23.0754 12.2018 22.8557 13.6945 22.9562 15.183L4.71216 35.72C4.20438 36.2919 3.93421 37.0362 3.95689 37.8007C3.97956 38.5652 4.29337 39.2921 4.83416 39.833L8.16716 43.167C8.70813 43.7076 9.43516 44.0213 10.1996 44.0437C10.9641 44.0662 11.7083 43.7959 12.2802 43.288L32.8172 25.045C33.0452 25.06 33.2732 25.083 33.5002 25.083ZM32.8742 23.048L24.9532 15.127C24.8389 13.6386 25.1215 12.1465 25.7722 10.803L37.2002 22.228C35.8553 22.8778 34.3626 23.1606 32.8732 23.048H32.8742ZM33.4552 5.99998C35.1454 5.99948 36.7978 6.50025 38.2034 7.43897C39.609 8.37768 40.7046 9.71217 41.3517 11.2736C41.9988 12.8351 42.1683 14.5534 41.8387 16.2112C41.5091 17.869 40.6953 19.3918 39.5002 20.587C39.3132 20.775 39.1132 20.946 38.9122 21.113L26.8872 9.09098C27.0552 8.89098 27.2262 8.69098 27.4132 8.50198C28.2049 7.70627 29.1465 7.07544 30.1836 6.64598C31.2207 6.21652 32.3327 5.99695 33.4552 5.99998V5.99998ZM10.9552 41.793C10.7645 41.9622 10.5164 42.0522 10.2615 42.0446C10.0067 42.037 9.7644 41.9323 9.58416 41.752L6.24816 38.418C6.06828 38.2377 5.96398 37.9955 5.95655 37.7409C5.94911 37.4863 6.03911 37.2385 6.20816 37.048L24.0082 17.01L30.9912 23.993L10.9552 41.793Z" fill="black"/>
<path d="M22.2918 25.7078C22.4793 25.8953 22.7336 26.0006 22.9988 26.0006C23.264 26.0006 23.5183 25.8953 23.7058 25.7078L25.8268 23.5868C26.009 23.3982 26.1098 23.1456 26.1075 22.8834C26.1052 22.6212 26 22.3704 25.8146 22.185C25.6292 21.9996 25.3784 21.8944 25.1162 21.8921C24.854 21.8898 24.6014 21.9906 24.4128 22.1728L22.2918 24.2938C22.1043 24.4813 21.999 24.7356 21.999 25.0008C21.999 25.266 22.1043 25.5203 22.2918 25.7078Z" fill="black"/>
<path d="M9 22.0001C9.79565 22.0001 10.5587 21.6841 11.1213 21.1215C11.6839 20.5589 12 19.7958 12 19.0001V11.8692L13.445 12.8321C13.6657 12.9793 13.9358 13.0329 14.1959 12.9809C14.456 12.929 14.6848 12.7758 14.832 12.5552C14.9792 12.3345 15.0327 12.0644 14.9808 11.8043C14.9288 11.5442 14.7757 11.3153 14.555 11.1681L11.555 9.16815C11.4044 9.06767 11.2293 9.00996 11.0485 9.00118C10.8677 8.99239 10.6879 9.03287 10.5282 9.11828C10.3686 9.20369 10.2352 9.33083 10.1421 9.48614C10.0491 9.64145 9.99997 9.81911 10 10.0001V16.1841C9.67974 16.0657 9.34144 16.0035 9 16.0001C8.20435 16.0001 7.44129 16.3162 6.87868 16.8788C6.31607 17.4414 6 18.2045 6 19.0001C6 19.7958 6.31607 20.5589 6.87868 21.1215C7.44129 21.6841 8.20435 22.0001 9 22.0001V22.0001ZM9 18.0001C9.19778 18.0001 9.39112 18.0588 9.55557 18.1687C9.72002 18.2786 9.84819 18.4347 9.92388 18.6175C9.99957 18.8002 10.0194 19.0013 9.98079 19.1952C9.9422 19.3892 9.84696 19.5674 9.70711 19.7073C9.56725 19.8471 9.38907 19.9423 9.19509 19.9809C9.00111 20.0195 8.80004 19.9997 8.61732 19.924C8.43459 19.8483 8.27841 19.7202 8.16853 19.5557C8.05865 19.3913 8 19.1979 8 19.0001C8 18.7349 8.10536 18.4806 8.29289 18.293C8.48043 18.1055 8.73478 18.0001 9 18.0001V18.0001Z" fill="black"/>
<path d="M37.555 29.1681C37.4044 29.0677 37.2293 29.01 37.0485 29.0012C36.8677 28.9924 36.6879 29.0329 36.5282 29.1183C36.3686 29.2037 36.2352 29.3308 36.1421 29.4861C36.0491 29.6415 36 29.8191 36 30.0001V36.1841C35.6797 36.0657 35.3414 36.0035 35 36.0001C34.4067 36.0001 33.8266 36.1761 33.3333 36.5057C32.8399 36.8354 32.4554 37.3039 32.2284 37.8521C32.0013 38.4003 31.9419 39.0035 32.0576 39.5854C32.1734 40.1674 32.4591 40.7019 32.8787 41.1215C33.2982 41.541 33.8328 41.8268 34.4147 41.9425C34.9967 42.0583 35.5999 41.9988 36.148 41.7718C36.6962 41.5447 37.1648 41.1602 37.4944 40.6669C37.8241 40.1735 38 39.5935 38 39.0001V31.8691L39.445 32.8322C39.5543 32.905 39.6768 32.9557 39.8056 32.9812C39.9345 33.0067 40.0671 33.0066 40.1959 32.9809C40.3247 32.9552 40.4471 32.9043 40.5563 32.8313C40.6654 32.7582 40.7591 32.6644 40.832 32.5552C40.9049 32.4459 40.9555 32.3233 40.9811 32.1945C41.0066 32.0657 41.0065 31.9331 40.9808 31.8043C40.955 31.6755 40.9042 31.553 40.8311 31.4439C40.7581 31.3347 40.6643 31.241 40.555 31.1681L37.555 29.1681ZM35 40.0001C34.8022 40.0001 34.6089 39.9415 34.4444 39.8316C34.28 39.7217 34.1518 39.5656 34.0761 39.3828C34.0004 39.2001 33.9806 38.999 34.0192 38.8051C34.0578 38.6111 34.153 38.4329 34.2929 38.293C34.4327 38.1532 34.6109 38.0579 34.8049 38.0194C34.9989 37.9808 35.2 38.0006 35.3827 38.0763C35.5654 38.152 35.7216 38.2801 35.8315 38.4446C35.9414 38.609 36 38.8024 36 39.0001C36 39.2654 35.8946 39.5197 35.7071 39.7073C35.5196 39.8948 35.2652 40.0001 35 40.0001Z" fill="black"/>
</svg>
