<svg version="1.1" id="Capa_1" xmlns="http://www.w3.org/2000/svg" xmlns:xlink="http://www.w3.org/1999/xlink" x="0px" y="0px" viewBox="0 0 512 512" style="enable-background:new 0 0 512 512;" xml:space="preserve">
<path style="fill: rgb(250, 223, 160);" d="M0,208.533V225.6c0,113.067,147.2,202.667,230.4,202.667h51.2c83.2,0,230.4-89.6,230.4-202.667
	v-17.067C341.333,257.6,170.667,257.6,0,208.533z" id="id_101"></path>
<path style="fill: rgb(230, 95, 113);" d="M512,82.667v144c0,0-225.067,25.6-230.4,202.667h-51.2C225.067,252.267,0,225.6,0,225.6V82.667
	C170.667,145.6,341.333,145.6,512,82.667z" id="id_102"></path>
<path style="fill: rgb(255, 240, 242);" d="M291.2,200c-16,0-29.867,9.6-35.2,24.533C250.667,210.667,236.8,200,220.8,200
	c-20.267,0-37.333,17.067-37.333,37.333c0,41.6,44.8,54.4,72.533,88.533c27.733-34.133,71.467-46.933,71.467-88.533
	C328.533,216,311.467,200,291.2,200z" id="id_103"></path>
<path style="fill: rgb(250, 219, 147);" d="M512,82.667v44.8c-84.267,29.867-170.667,44.8-256,44.8s-171.733-14.933-256-44.8v-44.8
	C170.667,145.6,341.333,145.6,512,82.667z" id="id_104"></path>
<g>
</g>
<g>
</g>
<g>
</g>
<g>
</g>
<g>
</g>
<g>
</g>
<g>
</g>
<g>
</g>
<g>
</g>
<g>
</g>
<g>
</g>
<g>
</g>
<g>
</g>
<g>
</g>
<g>
</g>
</svg>